/* XPM */
static char * blocksinsidemap_xpm[] = {
"64 64 185 2",
"  	c #6F736A",
". 	c #777C70",
"+ 	c #6E7269",
"@ 	c #777B70",
"# 	c #868B7C",
"$ 	c #4D504A",
"% 	c #4C4F49",
"& 	c #858A7B",
"* 	c #6A6D65",
"= 	c #393D37",
"- 	c #73776D",
"; 	c #50544D",
"> 	c #6B6E66",
", 	c #696D64",
"' 	c #6D7168",
") 	c #62665E",
"! 	c #5D6159",
"~ 	c #71756B",
"{ 	c #676B63",
"] 	c #4F524C",
"^ 	c #565A52",
"/ 	c #74786E",
"( 	c #2D312B",
"_ 	c #7D8175",
": 	c #497960",
"< 	c #545750",
"[ 	c #262925",
"} 	c #787D71",
"| 	c #639A71",
"1 	c #565A53",
"2 	c #A4DE89",
"3 	c #97D584",
"4 	c #9DD986",
"5 	c #8ECF81",
"6 	c #595C55",
"7 	c #5F635B",
"8 	c #242723",
"9 	c #9CD886",
"0 	c #A3DD88",
"a 	c #91D182",
"b 	c #89C27D",
"c 	c #7FA675",
"d 	c #95D484",
"e 	c #87BD7C",
"f 	c #61655C",
"g 	c #8FCF81",
"h 	c #A1DC88",
"i 	c #768C6F",
"j 	c #697869",
"k 	c #8BC97F",
"l 	c #9BD886",
"m 	c #A3DE89",
"n 	c #82AA78",
"o 	c #828779",
"p 	c #656860",
"q 	c #95D383",
"r 	c #94D383",
"s 	c #A0DB88",
"t 	c #9EDA87",
"u 	c #779070",
"v 	c #A2DC88",
"w 	c #98D685",
"x 	c #9CD986",
"y 	c #9BD785",
"z 	c #90D082",
"A 	c #A2DD88",
"B 	c #A3DD89",
"C 	c #9AD785",
"D 	c #93D283",
"E 	c #8FD081",
"F 	c #95D483",
"G 	c #96D484",
"H 	c #9FDB87",
"I 	c #92D282",
"J 	c #92D182",
"K 	c #92D283",
"L 	c #808577",
"M 	c #99D685",
"N 	c #5C5F58",
"O 	c #585B54",
"P 	c #7B9B72",
"Q 	c #41453F",
"R 	c #50534D",
"S 	c #85B77A",
"T 	c #7EA475",
"U 	c #6F736B",
"V 	c #80A976",
"W 	c #8CC97F",
"X 	c #798572",
"Y 	c #6A6E65",
"Z 	c #676B62",
"` 	c #5B5F58",
" .	c #7F8476",
"..	c #73806D",
"+.	c #8CCA80",
"@.	c #768A6F",
"#.	c #6B6F66",
"$.	c #6A6F67",
"%.	c #6C7069",
"&.	c #87BE7C",
"*.	c #88B97D",
"=.	c #62655C",
"-.	c #7B9C73",
";.	c #75896E",
">.	c #545751",
",.	c #4D5658",
"'.	c #586162",
").	c #768B6F",
"!.	c #769A6D",
"~.	c #6C7067",
"{.	c #83B379",
"].	c #7A9872",
"^.	c #50544E",
"/.	c #4F5C5F",
"(.	c #5C696B",
"_.	c #90D182",
":.	c #8AC67E",
"<.	c #71796B",
"[.	c #717A6B",
"}.	c #8BC67E",
"|.	c #96D584",
"1.	c #8BC77F",
"2.	c #6E7869",
"3.	c #545A56",
"4.	c #556469",
"5.	c #616F71",
"6.	c #86BA7B",
"7.	c #82AF78",
"8.	c #5C6463",
"9.	c #58696E",
"0.	c #5F6E70",
"a.	c #74856E",
"b.	c #8DCC80",
"c.	c #789371",
"d.	c #98D584",
"e.	c #93D383",
"f.	c #4E514B",
"g.	c #A0DB87",
"h.	c #545851",
"i.	c #7D8275",
"j.	c #7C8074",
"k.	c #84AF7A",
"l.	c #707469",
"m.	c #7DA174",
"n.	c #61645D",
"o.	c #5A5E56",
"p.	c #657060",
"q.	c #9FDA87",
"r.	c #74906C",
"s.	c #727F6C",
"t.	c #73816D",
"u.	c #51544E",
"v.	c #7A9972",
"w.	c #4F524B",
"x.	c #99D785",
"y.	c #88C37C",
"z.	c #70756A",
"A.	c #8CCA7F",
"B.	c #8AC47E",
"C.	c #87BD7B",
"D.	c #6F756A",
"E.	c #A0DC88",
"F.	c #82B078",
"G.	c #75876E",
"H.	c #8DCD81",
"I.	c #74876E",
"J.	c #7EA375",
"K.	c #779170",
"L.	c #7A7E73",
"M.	c #75796E",
"N.	c #828679",
"O.	c #545850",
"P.	c #61655D",
"Q.	c #4B4F48",
"R.	c #60635C",
"S.	c #70746B",
"T.	c #575B54",
"U.	c #4C5049",
"V.	c #858A7C",
"W.	c #797E72",
"X.	c #70746A",
"Y.	c #555851",
"Z.	c #72766C",
"`.	c #575A53",
" +	c #5B5F57",
"                                                                                                                        . +     ",
"          @                                                                                                         # # $       ",
"      # # %                                                                                         & *         . % % % =       ",
"  - ; % % =                                                                                     # # %           >         ,     ",
"  '         )                         % #                                                     ! % % =                           ",
"        ~                               % %                         # # %                             {                         ",
"    & # ]                         #     %                   %     # % %         % #                   % #                       ",
"  ! % % =                       % % # # =           % #     % #   % %             % #                   % #                     ",
"          ^           # %     # % % % =               % # % = % # =             # % %         %           %                     ",
"          /       # # %       % = = % = % % #       # % % % = % =               # = % %   #   % #         % #                   ",
"              # % % % =     # = = = = = % % % % # # % % % % = % % #           # =         % # % %         % #   # #             ",
"              %         =   % ( = = = = = = % % % % % = = = ( = = % #       # =             % % %         = % % % % #     _ *   ",
"                        # = = ( ( = = ( = = = % % : : : = : : ( ( % % #   # = %           # = % = % #   # =         < & # %     ",
"                        # % = [ ( ( ( : : = = = : : : : : ( [ ( ( : : : : : : = %       # : : = ( = % # =           % % % =     ",
"              }           = ( [ : : : | | : : : : : : : : : : : : : : : : : : : : : : : : | | : [ ( ( %             )       =   ",
"          # # %       # % ( ( : | | | | | | | | | | : : : : : | | | | | | | : : : | | : | | | | : [ ( ( % #                 # ; ",
"        1 % % =       % % = [ : | | 2 2 2 3 | | | | | | | | | | | 2 4 5 | | | : : : | | |     | | : [ =     %               # 6 ",
"                7   % % = = 8 | 5 5 9 2 2 0 a b c     | | | | d 2 2 2 3 5 e | | | | |           | : [ = % %                   f ",
"                  % #   = % % 8 5 5 g h 2 2 4 5 5 i       j k 5 l 2 2 m a 5 n   | |               | 8 = %     # %         o p   ",
"                  #     = = % 8 5 5 5 q 2 2 2 r 5 5 5 5 5 5 5 5 5 s 2 2 t 5 5 u                     8 = % # # %                 ",
"                        = = % 8 5 5 5 5 r 3 v 5 5 5 5 5 5 5 5 5 5 r 2 2 2 w 5 5 5 5 5 5 5 5 5 5 | 8 [ % = = =                   ",
"                          = = 8 5 5 5 5 5 5 x y 5 z A 2 2 2 2 B a 5 C 2 2 2 D 5 5 5 5 5 5 5 5 | | 8 = % #     = #               ",
"                          = = 8 5 5 5 r 5 5 E v F 5 G 2 2 2 2 2 t 5 5 H 2 2 H 5 5 t 5 5 5 5 5 | : 8 = #         %               ",
"              # %         = = 8 | 5 I 2 J K 5 d h E 5 9 2 2 2 2 2 w 5 D 2 2 2 C 5 5 5 5 5 5 | | : 8 =           %               ",
"          # # %   L       = = 8 | 5 5 l B A z 5 C D 5 5 5 5 5 5 5 5 5 5 M 2 2 2 r 5 5 5     | : 8 = =                           ",
"        N % % =   O #       = 8 5 5 g v 2 2 4 5 5 5 5 5 5 5 5 5 5 5 5 5 5 t 2 2 s 5 5 P       | 8 = = %                         ",
"                Q R % =   % = 8   S 5 d 2 2 2 3 5 5 5 5 5 T   U       V 5 J m 2 2 l 5 W X Y Z   8 = = % #         # %           ",
"            `  .# #   % = = 8     ..+.5 l 2 2 B a 5 5 5 5 5 @.+ #.$.%.  &.5 3 2 2 2 F 5 *.=.N   8 = = = % # #   % %             ",
"                      # % = 8 |     -.5 5 h 2 2 t 5 g 5 5 W ;.#.>.,.'.  ).5 5 4 2 2 h E 5 !.~.  8 = = ( = = = = = % %           ",
"                      # % = 8 | |     {.5 r 2 2 2 h 9 5 5 5 ].#.^./.(.    T 5 _.A 2 2 9 5 :.<.  | 8 = ( = % #     # # %         ",
"                      % % = 8 | | 5   [.}.5 C 2 2 2 2 |.5 5 1.2.3.4.5.      6.5 G 2 2 2 G 7.    | 8 = ( %             # %       ",
"                  % % % % = 8 | 5 5 5 5 5 5 5 H 2 2 2 A _.5 5 {.8.9.0.#.+   a.b.5 G w 2 H g c.  5 8 ( (                         ",
"                      % % = 8 x 2 5 5 5 5 5 5 D 2 2 2 2 4 5 5 5 5 5 5 5 5 5 5 5 5 5 5 t M 5 5 5 5 5 8 =     %                   ",
"                    % % = = 8 E v 2 2 2 2 2 5 5 M 2 2 2 2 d.5 5 5 5 5 5 5 5 5 5 5 5 5 a B e.5 5 5 | 8 = % %                     ",
"                  % #   = % % 8 5 5 5 5 5 5 5 5 5 t 2 2 2 2 J 5 5 5 5 5 5 5 5 5 5 5 5 5 3 x 5 5 5 | 8 = %     # %               ",
"    /             #     = = % 8 _.5 5 5 5 5 5 5 5 I 2 2 2 2 t 5 5 5 l 2 2 2 2 2 2 A h 5 5 5 5 5 5 5 8 ( % # # %                 ",
"# # f.                  = = % 8 | 5 5 2 2 2 2 2 e.5 d.2 2 2 2 M 5 5 5 h 2 2 2 2 2 2 2 l 5 5 5 5 5 3 8 % = = =                   ",
"% % =                     ( = 8 | 5 r 2 2 2 2 2 g.5 5 4 2 2 2 2 D 5 5 r 2 2 2 2 2 2 2 2 3 G 5 5 5 8 = % #     = #               ",
"      h.                  ( [ 8 | | 5 C 2 2 2 2 2 C 5 a 0 2 2 2 H 5 5 5 C 2 2 2 2 2 2 2 2 2 r 5 | 8 = #         %               ",
"      i.        %         = 8 : : | 5 5 5 5 5 5 5 5 5 5 3 2 2 2 2 C 5 5 5 5 5 5 5 5 5 5 5 5 5 5 | 8 =           %               ",
"      j.        % #     % = 8 : | 2 w 5 5 5 5 5 5 5 5 5 5 x 2 2 2 2 r 5 5 5 5 5 5 5 5 5 5 5 5 | 8 [ =                           ",
"                  % # % = ( 8 | 2 2 2 K 5 k.l.N ~.    m.5 E v 2 2 2 s 5 5 -.        Y n.o.6 p.| 8 ( = %                         ",
"    # ,       % % % = = ( [ 8 5 H 2 2 q.5 5 r.N ~.      S 5 d 2 2 2 2 l 5 W s.t.      ~.N u.6 v.8 ( = % #         # %           ",
"    w.'     % # # #   % = ( 8 5 D 2 2 2 x.5 y.z.        ..A.5 l 2 2 2 2 d 5 1.B.z.        6 6   8 [ = = % # #   % %             ",
"  % ;                 % = ( 8 | 5 M 2 2 q.E C.D.          -.5 5 E.2 2 2 h E 5 5 F.a.      6 6   G.8 ( [ ( ( ( = = % %           ",
"% #                   % = 8 : | 5 5 t 2 x 5 H.I.            {.5 r 2 2 2 2 9 5 5 5 5 V     Z Z   J.8 [ ( = % #     # # %         ",
"#                   % % = 8 : 5 5 5 J x s 3 5 5 5 5 5 5 5 5 5 5 5 C 2 2 2 C 5 5 5 5 5 K.          6.8 ( %             # %       ",
"                  % % % % 8 5 5 5 5 5 5 r x 5 5 C 2 5 5 5 5 5 5 5 5 H 2 2 q.5 5 5 5 5 5 5 5 5 5 5 | 8 %                         ",
"                          # 8 8 8 g.w J 5 5 5 5 5 g.2 2 2 2 2 8 8 8 D 2 2 2 x.5 | | | 5 5 5 5 8 8 8 #                           ",
"                            # # # 8 2 t 5 5 5 5 | | | 2 2 2 8 # #   8 M 4 2 | | | | | | | 5 8 # # #                       @     ",
"                  L.'             8 2 2 M 5 | | | | | | | 8 #       # 8 5 8 8 8 8 8 8 : : 8 #                         # # %     ",
"              # # %               # 8 5 5 | | | : : : : 8 #           # 8 # #   # # # 8 8 #                 M.+   - ; % % =     ",
"            N % % =                 # 8 8 8 8 8 : 8 8 8 8 #             =             # =               N.# $     '         )   ",
"                    O.              # = # # # # 8 = # # # = #           = = %           =             P.% % =                   ",
"                    ~                 = #       # =       # %         = #     %       %                       Q.                ",
"                                      =           =       #         %         # % %                           . +               ",
"                  # R.              =             %               %             @ # %                         S.              # ",
"              # # %                 % %           %                         # # %                                         # # % ",
"            T.% % U.      V.{     %                 %                   - ; % % =                 & *                 W.% % % = ",
"                      # # %                                             '         )           # # %                   X.        ",
"                  W.% % % =                                                                 ! % % =               V.# Y.        ",
"                  ~.        #.                                                                      {         Z.`.% % =         ",
"                                                                                                              ~.         +      ",
"                                                                                                                        -       "};
