/* XPM */
static char *dummy[]={
"64 64 14 1",
"# c #090910",
"h c #0e0f15",
"k c #13161c",
"a c #1b2028",
"i c #252c35",
"l c #262925",
"c c #2d312b",
"b c #323c45",
"d c #393d37",
"g c #43525b",
"e c #4c4f49",
"f c #586d76",
". c #6f736a",
"j c #868b7c",
".............#abbcdeeee.....................fgchgbb#............",
".............#ibbcdee..............ej......efdckhgb#............",
"............#abgcddej...............ejj..jedfdckhgb#............",
"............#agicddej................eedddddgddkhgg#............",
"............#ibakedde.jjje............ee.jjeddakhgg#............",
"............#biaaie.deeee............ej....jedakkg#.............",
"............#iakii...je.....................eaaka#..............",
"...........e#ikkibi...je.....................aikia#.............",
"............e#kakbb....e...............e.....aiabi#.............",
".............#kakig....................e....jaiaiia#............",
".............#aikig....................jd..jeibk#bi#.....e......",
".....e......#aikhkgb.....................dddeib#.#bi#.....e.....",
"....e.......#i#hkkbg..j.................ejjedbbh#.#b#......ee...",
"....e.....e..#.#akeg.je................ej..eibkka#.##.....e.....",
"..eee....ee...#kiaddee....................eebgkai#.......e......",
".....e..eee..#kdiadee....................e..bgaibi#..e..eee.....",
"......eeddde.#abbcdeeee.....................fgchgbb#..eeddde....",
"e.....ed###de#ibbcdee..............ej......efdckhgb#..ed###deee.",
"eee..ee#hkk##abgcddej...............ejj..jedfdckhgb#.ee#hkk#ddde",
"ddeeeed#kakhhagicddej................eedddddgddkhgg#eed#kak#c##d",
"#ddedd#hkaakhibakedde.jjje............ee.jjeddakhgg#dd#hkaak#hh#",
"h#dddc#kaaakhbiaaie.deeee............ej....jedakkg#ddc#kaaakkhhk",
"kh#dcc#kaiaahiakii...je.....................eaakak#dcc#kaiaakhhk",
"kh#c##hkaiaahikkibi...je.....................aikia#c##hkaiaakhkk",
"khh#khhkaiaaahkakbb....e...............e.....aiabih#khhkaiaaahkk",
"kkhkkkhaaiaaahkakig....................e....jaiaiiahkkhaaiaaahka",
"kkhkakhaaiiaahaikig....................jd..jeibkhbihakhaaiiaahka",
"kkkaakhaiiiahaikhkgb.....................dddeibhkhbihkhaiiiahhka",
"khkaakhaiiiahikhkkbg..j.................ejjedbbhhhhbhkhaiiiahhka",
"khkaakkaibiahhkhakeg.je................ej..eibkkahkhhkkaibiahhka",
"khaiaakkibiahkkhiaddee....................eebgkaihaiaakkibiahkka",
"kkaiaakkibbahhhaiadee....................e..bgaibihiaakkibbahkaa",
"akaiiakhbgbkhaaibadde.......................ggikgbhiiakhbgbkhkaa",
"akaiiakhafbkhhabbidde......................eggdikbkiiakhafbkhkaa",
"akiiiaahafkkhkkkbbade......................efgddkgkkiaahafkkhkaa",
"akibiaakafakhkaikicde.......................fgdddkaakaakafakhkai",
"akibiaakagakkaaibkcdee......................feedabiakaakagakkaai",
"akibiaakaaaakaaikacee.e.....................ge.eagbiakakaaaakaai",
"akibiiaakaiakaikiace............................kagbiakakaiakaii",
"aaibiiaakaiakakibcd............................jdkhgbikakaiakaii",
"aaibbiaikaiakkibbcd....e..................e....jdkkhgbikaaiakaii",
"iaibbiaikabkaibbacd...ee.................ee...j.dakbkggkaabikaii",
"iabbbiabkikiibgbkcde.eeee...............ej.e.jediikbbkggkibikaii",
"iabbbaabkkibggkkaccdee...e.................jeedbbikbbakfkibikaib",
"iabbbaibkibgkkikiacce.......................ddbgbiakbaikaibbaaib",
"iabgbaibakkkaakabiace.......................dgbabiiabaibabgbaaib",
"iabgbibbibgbaakibacde......................eggbkbbiabibbibgbaaib",
"iabgbibgbbfkakaibcdde......................eggbkbbiabibgbbfkaiib",
"iabgbcbfbcfkaiigbbcej......................egbcliabgbcbfbcfkaiig",
"iabfgdgfcdgaaiiggcd..................e......gbdliabfgdgfcdgaaiig",
"iabfgddfddgaaibggdej.................e.....djbdliabfgddfddgaaibg",
"cigfgdegedciaigfcddj.................e....dj.bedcigfgdegedciaigf",
"difgdeeeeediaigfce.d....e............jeeeed....edifgdeeeeediaigf",
"eifgeejjeeebdbgfdj..deeej.............jj.je....eeifgeejjeeebdbgf",
"egfeej...jegebfde...ejj..................je....jegfeej...jegebfd",
"efgje.......defej..ej.....................e.....efgje.......defe",
"jf..je.....djjge..........................je....jf..je.....djjge",
".g.........e..j............................je....g.........e..j.",
"..........ee..............................................ee....",
"...........je..............................................je...",
"................................................................",
"................................................................",
"................................................................",
"................................................................"};
