/* XPM */
static char * collectible_xpm[] = {
"64 64 559 2",
"  	c #6F736A",
". 	c #777C70",
"+ 	c #6E7269",
"@ 	c #777B70",
"# 	c #868B7C",
"$ 	c #4D504A",
"% 	c #4C4F49",
"& 	c #858A7B",
"* 	c #6A6D65",
"= 	c #393D37",
"- 	c #73776D",
"; 	c #50544D",
"> 	c #6B6E66",
", 	c #696D64",
"' 	c #6D7168",
") 	c #62665E",
"! 	c #5D6159",
"~ 	c #71756B",
"{ 	c #676B63",
"] 	c #4F524C",
"^ 	c #70746B",
"/ 	c #72766C",
"( 	c #7E8375",
"_ 	c #4E514A",
": 	c #6C7067",
"< 	c #84897A",
"[ 	c #51544E",
"} 	c #75796F",
"| 	c #656860",
"1 	c #565953",
"2 	c #666A62",
"3 	c #3F433D",
"4 	c #767B70",
"5 	c #7A7E72",
"6 	c #4E524B",
"7 	c #797E71",
"8 	c #585C54",
"9 	c #60645C",
"0 	c #6A6E65",
"a 	c #61645D",
"b 	c #565952",
"c 	c #40433D",
"d 	c #5E625A",
"e 	c #828779",
"f 	c #565A52",
"g 	c #74796E",
"h 	c #60635C",
"i 	c #74786E",
"j 	c #818678",
"k 	c #545750",
"l 	c #5D6059",
"m 	c #6B6F66",
"n 	c #70746A",
"o 	c #686C64",
"p 	c #7F8477",
"q 	c #5F625A",
"r 	c #50534D",
"s 	c #83887A",
"t 	c #62665C",
"u 	c #73776B",
"v 	c #52554F",
"w 	c #7B7F72",
"x 	c #464A44",
"y 	c #3B3F39",
"z 	c #7B7F73",
"A 	c #444842",
"B 	c #686C63",
"C 	c #53564F",
"D 	c #434740",
"E 	c #4C5049",
"F 	c #63685F",
"G 	c #74786D",
"H 	c #7D8175",
"I 	c #7C8174",
"J 	c #585C53",
"K 	c #5C6058",
"L 	c #6D7369",
"M 	c #4A4E47",
"N 	c #52564F",
"O 	c #7B8074",
"P 	c #696D63",
"Q 	c #50534C",
"R 	c #677568",
"S 	c #5A5D56",
"T 	c #5B5F57",
"U 	c #42463F",
"V 	c #818578",
"W 	c #787D71",
"X 	c #5F635B",
"Y 	c #6A6E66",
"Z 	c #647466",
"` 	c #818677",
" .	c #555851",
"..	c #64675F",
"+.	c #7F8376",
"@.	c #828678",
"#.	c #687065",
"$.	c #62695F",
"%.	c #565A53",
"&.	c #5C5F58",
"*.	c #6B6F67",
"=.	c #5E615A",
"-.	c #3C403A",
";.	c #6F746A",
">.	c #828778",
",.	c #595C55",
"'.	c #656961",
").	c #5B5F56",
"!.	c #808577",
"~.	c #6D7166",
"{.	c #5F625B",
"].	c #61655C",
"^.	c #595D55",
"/.	c #73786D",
"(.	c #797D72",
"_.	c #62655D",
":.	c #808476",
"<.	c #686B63",
"[.	c #62275F",
"}.	c #3D3941",
"|.	c #787C71",
"1.	c #4E514B",
"2.	c #52554E",
"3.	c #4F524B",
"4.	c #646860",
"5.	c #3C3D3F",
"6.	c #8C3A8E",
"7.	c #9E4690",
"8.	c #544F54",
"9.	c #7A8073",
"0.	c #6D7169",
"a.	c #6D7167",
"b.	c #71756C",
"c.	c #65685E",
"d.	c #72776D",
"e.	c #666A61",
"f.	c #545851",
"g.	c #484C46",
"h.	c #4E504F",
"i.	c #8C398E",
"j.	c #AD649A",
"k.	c #B2609D",
"l.	c #5E555D",
"m.	c #585B54",
"n.	c #797E70",
"o.	c #6F7369",
"p.	c #666961",
"q.	c #454842",
"r.	c #4F504F",
"s.	c #752784",
"t.	c #A45994",
"u.	c #BF7CA6",
"v.	c #6D1A68",
"w.	c #535650",
"x.	c #575A53",
"y.	c #7E8376",
"z.	c #545553",
"A.	c #5D1474",
"B.	c #85348B",
"C.	c #6F1F69",
"D.	c #686B62",
"E.	c #5E625B",
"F.	c #524753",
"G.	c #7F2376",
"H.	c #5A5E56",
"I.	c #64685F",
"J.	c #474A44",
"K.	c #31024A",
"L.	c #792C86",
"M.	c #A75D96",
"N.	c #561C64",
"O.	c #4C434E",
"P.	c #B764A0",
"Q.	c #933B8E",
"R.	c #4C4D4F",
"S.	c #818779",
"T.	c #61655B",
"U.	c #595D54",
"V.	c #33034B",
"W.	c #591274",
"X.	c #792C87",
"Y.	c #86358B",
"Z.	c #7F3088",
"`.	c #7C2E88",
" +	c #424246",
".+	c #504551",
"++	c #A04C91",
"@+	c #A96097",
"#+	c #83338B",
"$+	c #37353E",
"%+	c #555951",
"&+	c #60665D",
"*+	c #63675E",
"=+	c #63665F",
"-+	c #5E6259",
";+	c #51554E",
">+	c #5A5C59",
",+	c #5F625C",
"'+	c #51524E",
")+	c #520E6E",
"!+	c #64187C",
"~+	c #782B86",
"{+	c #7B2D87",
"]+	c #6F2182",
"^+	c #572F62",
"/+	c #782983",
"(+	c #A15193",
"_+	c #81318A",
":+	c #5B1269",
"<+	c #7C8074",
"[+	c #41453F",
"}+	c #60495E",
"|+	c #652F61",
"1+	c #5D605A",
"2+	c #464649",
"3+	c #8B2F80",
"4+	c #47095C",
"5+	c #470965",
"6+	c #62177B",
"7+	c #63177C",
"8+	c #661B7D",
"9+	c #82328A",
"0+	c #8A2E7F",
"a+	c #3B044A",
"b+	c #7A2C87",
"c+	c #4A0961",
"d+	c #6E7268",
"e+	c #5B5F58",
"f+	c #7F8476",
"g+	c #500C5E",
"h+	c #9E4A92",
"i+	c #A54894",
"j+	c #451A4F",
"k+	c #38383F",
"l+	c #B777A1",
"m+	c #A04894",
"n+	c #571070",
"o+	c #500D6D",
"p+	c #63187C",
"q+	c #6D207F",
"r+	c #B66F9F",
"s+	c #8C3182",
"t+	c #550F6F",
"u+	c #6A1D7F",
"v+	c #510C68",
"w+	c #4D504B",
"x+	c #5C6156",
"y+	c #36034D",
"z+	c #823088",
"A+	c #AB6098",
"B+	c #AB5D99",
"C+	c #873388",
"D+	c #923E8F",
"E+	c #A65D95",
"F+	c #9B4591",
"G+	c #561070",
"H+	c #5E1478",
"I+	c #6C1F7E",
"J+	c #913E8F",
"K+	c #7D2E88",
"L+	c #4D0C6A",
"M+	c #742683",
"N+	c #65197D",
"O+	c #64197D",
"P+	c #732483",
"Q+	c #9F4A90",
"R+	c #48364E",
"S+	c #575B53",
"T+	c #52564D",
"U+	c #444148",
"V+	c #4E0C6B",
"W+	c #803088",
"X+	c #A65197",
"Y+	c #8C398D",
"Z+	c #903C8E",
"`+	c #9A4590",
" @	c #712483",
".@	c #7B2D88",
"+@	c #3D065C",
"@@	c #61167A",
"#@	c #913D8F",
"$@	c #B56F9F",
"%@	c #9B4691",
"&@	c #70227E",
"*@	c #6A6D66",
"=@	c #696C65",
"-@	c #2D0247",
";@	c #762985",
">@	c #9D4A92",
",@	c #984290",
"'@	c #8A378D",
")@	c #591272",
"!@	c #6C1F80",
"~@	c #571072",
"{@	c #772985",
"]@	c #A55D94",
"^@	c #AD6499",
"/@	c #86358C",
"(@	c #393141",
"_@	c #414146",
":@	c #6E7369",
"<@	c #676B62",
"[@	c #84887A",
"}@	c #757A6F",
"|@	c #2F0B49",
"1@	c #4C0B6A",
"2@	c #742783",
"3@	c #661A7A",
"4@	c #6F2181",
"5@	c #6F2282",
"6@	c #540F70",
"7@	c #591174",
"8@	c #5F1579",
"9@	c #661B7A",
"0@	c #89368C",
"a@	c #87368C",
"b@	c #372F3E",
"c@	c #545753",
"d@	c #73326C",
"e@	c #A05494",
"f@	c #4F2D5A",
"g@	c #51544D",
"h@	c #676A60",
"i@	c #5D615A",
"j@	c #330352",
"k@	c #581174",
"l@	c #62177C",
"m@	c #732584",
"n@	c #60167A",
"o@	c #782A85",
"p@	c #762885",
"q@	c #61177B",
"r@	c #792480",
"s@	c #AD5699",
"t@	c #A86097",
"u@	c #83318B",
"v@	c #4C4E4C",
"w@	c #555A50",
"x@	c #484B45",
"y@	c #4B4E48",
"z@	c #444249",
"A@	c #430762",
"B@	c #581173",
"C@	c #4F0C6C",
"D@	c #5C1377",
"E@	c #681C7E",
"F@	c #601679",
"G@	c #5F1476",
"H@	c #A35694",
"I@	c #AA6098",
"J@	c #A85D97",
"K@	c #812F88",
"L@	c #430658",
"M@	c #777C71",
"N@	c #534F55",
"O@	c #3E1E43",
"P@	c #432247",
"Q@	c #49224B",
"R@	c #432248",
"S@	c #7A2B85",
"T@	c #490A66",
"U@	c #530E6F",
"V@	c #5B1376",
"W@	c #540F6F",
"X@	c #4D0C6B",
"Y@	c #530E6E",
"Z@	c #6B1F7D",
"`@	c #7A2C86",
" #	c #A25493",
".#	c #6D1D7F",
"+#	c #343139",
"@#	c #858A7C",
"##	c #7B8073",
"$#	c #70756B",
"%#	c #504555",
"&#	c #84348B",
"*#	c #A65D96",
"=#	c #AC649A",
"-#	c #8B398D",
";#	c #671B7B",
">#	c #64187D",
",#	c #440863",
"'#	c #4A0A68",
")#	c #4F0D6C",
"!#	c #792B86",
"~#	c #440E58",
"{#	c #6C6F67",
"]#	c #707469",
"^#	c #7D8174",
"/#	c #656862",
"(#	c #3D0559",
"_#	c #621879",
":#	c #6B1F80",
"<#	c #752885",
"[#	c #752884",
"}#	c #61167B",
"|#	c #510D6D",
"1#	c #4B0B68",
"2#	c #581172",
"3#	c #3A055A",
"4#	c #4E0C6C",
"5#	c #691C7E",
"6#	c #561072",
"7#	c #3B1850",
"8#	c #73776E",
"9#	c #61655D",
"0#	c #767A6F",
"a#	c #575B54",
"b#	c #594352",
"c#	c #2E0249",
"d#	c #420761",
"e#	c #6D2081",
"f#	c #6D1F80",
"g#	c #571073",
"h#	c #3E065D",
"i#	c #450864",
"j#	c #41075E",
"k#	c #2B0143",
"l#	c #5E1651",
"m#	c #656E5D",
"n#	c #6D7165",
"o#	c #797D71",
"p#	c #5C3C53",
"q#	c #5E0252",
"r#	c #3A0037",
"s#	c #4D095A",
"t#	c #853288",
"u#	c #A75198",
"v#	c #9C4891",
"w#	c #420762",
"x#	c #500D6A",
"y#	c #5E1475",
"z#	c #5C1475",
"A#	c #4B0B6A",
"B#	c #360455",
"C#	c #350036",
"D#	c #520148",
"E#	c #600353",
"F#	c #7E8275",
"G#	c #585C55",
"H#	c #7D8275",
"I#	c #610353",
"J#	c #280138",
"K#	c #C080A6",
"L#	c #AC599A",
"M#	c #9F4C93",
"N#	c #5F1576",
"O#	c #6F207E",
"P#	c #A75696",
"Q#	c #88287D",
"R#	c #41003C",
"S#	c #5C024F",
"T#	c #600753",
"U#	c #6C6766",
"V#	c #674D5E",
"W#	c #3D013E",
"X#	c #510D6C",
"Y#	c #671B7D",
"Z#	c #7E2F88",
"`#	c #65197C",
" $	c #994290",
".$	c #B16B9C",
"+$	c #4B0B69",
"@$	c #772986",
"#$	c #9A4292",
"$$	c #A45695",
"%$	c #83287B",
"&$	c #4B0142",
"*$	c #6D6666",
"=$	c #5F0352",
"-$	c #39003A",
";$	c #470966",
">$	c #2C0142",
",$	c #65197B",
"'$	c #621770",
")$	c #38003C",
"!$	c #58116D",
"~$	c #5F1453",
"{$	c #61645C",
"]$	c #6A5C62",
"^$	c #3A0038",
"/$	c #370036",
"($	c #370035",
"_$	c #46003E",
":$	c #2A013A",
"<$	c #380453",
"[$	c #380036",
"}$	c #460040",
"|$	c #4D0145",
"1$	c #54014A",
"2$	c #5F1552",
"3$	c #494D47",
"4$	c #674F5E",
"5$	c #500147",
"6$	c #48085C",
"7$	c #42075B",
"8$	c #44003E",
"9$	c #57024C",
"0$	c #600C53",
"a$	c #684E5F",
"b$	c #654B5C",
"c$	c #604458",
"d$	c #584351",
"e$	c #5B5E57",
"f$	c #61595B",
"g$	c #5B2A51",
"h$	c #5B2751",
"i$	c #4E0144",
"j$	c #622A56",
"k$	c #685560",
"l$	c #838879",
"m$	c #5E6159",
"n$	c #50544C",
"o$	c #3F433C",
"p$	c #353933",
"q$	c #3A3E38",
"r$	c #656960",
"s$	c #6E7169",
"t$	c #565852",
"u$	c #6F726A",
"v$	c #737D6C",
"w$	c #72786C",
"x$	c #454942",
"y$	c #727E6C",
"z$	c #787F71",
"A$	c #858C7A",
"B$	c #808477",
"C$	c #4D5049",
"D$	c #5A5D57",
"E$	c #75796E",
"F$	c #7E8274",
"G$	c #63675D",
"H$	c #696D65",
"I$	c #808B79",
"J$	c #738972",
"K$	c #768D6F",
"L$	c #5E6258",
"M$	c #7A7E73",
"N$	c #768071",
"O$	c #5B695C",
"P$	c #537460",
"Q$	c #526554",
"R$	c #566E5D",
"S$	c #677467",
"T$	c #494C46",
"U$	c #84897B",
"V$	c #62665D",
"W$	c #3E413B",
"X$	c #517862",
"Y$	c #474943",
"Z$	c #828679",
"`$	c #545850",
" %	c #464A43",
".%	c #272925",
"+%	c #3E423C",
"@%	c #74786C",
"#%	c #4B4F48",
"$%	c #555952",
"%%	c #797E72",
"                                                                                                                        . +     ",
"          @                                                                                                         # # $       ",
"      # # %                                                                                         & *         . % % % =       ",
"  - ; % % =                                                                                     # # %           >         ,     ",
"  '         )                         % #                                                     ! % % =                           ",
"        ~                               % %                         # # %                             {                         ",
"    & # ]                     ^ / (     _                   $ ^ : < [ $         % #           / } |   1 <                       ",
"  ! % % =                   : 2 % 3 4 5 6           % #     % 7 8 9 9             % #       0 a b c     d e                     ",
"          f           # %     g     )                 % # [ f *   )             # % %         +     )     h                     ",
"          i       # # %         ~         { j       & [ k l m ~ n ~ o           # = % %   p     ~         m p                   ",
"              # % % % =     & # ]           q r # s t u v w # ] o h x         & y         9 & # ]           z   # #             ",
"              %         A B % % =           9 [ C 6 % % D k _ E       F / B G 8     ^ >   2 % % =           9 [ % % #     H *   ",
"                        I !       f         l J K L       n - |   ^ + * a M   +   ' 2 N   -       f           /     k & # %     ",
"                        O +       i       e P Q R     G G S T U ^ '         )           )         i       V } +     % % % =     ",
"              W             n         # $ X Y Z L & ` ] K |     )       ^                     +       #  ...:       )       =   ",
"          # # %       +.@.& 1         b   n ~ #.$.%.&.m     ~           )               ^           *.=.: 5                 # ; ",
"        %.% % =       N % % -.          + o h x ;.      >.# ]           B             / a       ~           d               # ,.",
"                X   $ 1 '.    ).          ^     )   !.( $ % =             K           ~.y     i {.                            ].",
"                  % #   ^./.(._.      :.-   ~   ^ <.[.}.'.    f           |.      # V B   )     m             +.1.        e |   ",
"                  #     M 2.3.=   ~ o , !.# ] m 4.5.6.7.8.    i       # 9.0.  # %  ...a.          {         b.c.+               ",
"                        9       4.d.e.: ].f.g.    h.i.j.k.l.      # % l * +   m.  I < ]           ^       # n.B                 ",
"                            ~ o.p.! q.        ' ~ r.s.t.u.v.: 4 B w.'     o     m x.% U               # % $ a = #               ",
"                        & # r 0 0     )     / y.v z.A.B.t.u.C.D.E.      F.G.    : B H.  I.        ' - k         %               ",
"              # %     2 % ] ;     ~           '.J.  K.L.B.t.M.N.3     O.P.Q.R.B       )         S.T.o           %               ",
"          # # %   !.  n ~ :   p # ]               U.V.W.X.Y.Z.`. +f .+++@+#+$+%+  ~         ^ &+*+*.)                           ",
"        &.% % =   m.s , =+-+} ;+% =             >+,+'+)+!+~+{+]+^+* /+(+_+:+  <+# ]             ~                               ",
"                [+v m.9     4.+     f   }+|+1+  2+3+4+5+6+7+8+9+0+a+b+X.{+c+d+m.% =           b.e+                # %           ",
"            e+f+# e     ~           i   g+h+i+j+k+l+m+n+o+p+q+r+s+t+X.b+u+v+w+      f         ' x++         G   % %             ",
"                    < # ]               y+z+A+B+C+D+E+F+G+H+I+J+K+L+M+N+O+P+Q+R+    i       # j B S+        B T+= % %           ",
"                  2 % % =           ^   U+V+W+X+t.Y+Z+t.`+G+o+ @.@+@@@!+#@$@%@&@*@      # % $ a m i       # # :   # # %         ",
"                          f         m   =@-@V+;@>@,@X.'@{+b+)@p+!@~@L+{@]@^@/@(@    _@  % :@  n       # % x.<@+       # %       ",
"                ^ S '     i       [@}@'   Y |@1@2@b+{+3@4@5@6@7@p+8@9@b+0@a@!@b@c@d@e@f@I.:   o       r                         ",
"              *.4.g@          # % h@i@o     Y j@k@p+l@m@)+6+p+1@p+n@o@b+p@!@q@r@s@t@u@v@                    S                   ",
"                    )         w@'.f x@y@    ^ z@A@B@p+p+q@C@6+k@@@D@p+E@F@G@H@I@J@K@L@          '         ' M@+                 ",
"                ~             +       N@O@P@Q@R@S@T@C@6+p+U@V@7+W@X@8@Y@Z@`@ #F+.#p++#            ^ >   e !.B @#%               ",
"    i       ### ]               $#  ~ %#&#*#=#t.t.-#;#C@6+p+1@>#,#'#)#!#b+b+E@p+p+~#{#f         m 0 %+B 2 ]#^#1.                ",
"# # 1.    ' {.% =               f+# ] /#(#_#:#:#<#b+b+[#C@}#|#1#2#3#4#5#!@l@8@6#7#'   8#      s |.    )     9#                  ",
"% % =             f       ^   0#a#% =   b#c#d#6#u+e#b+f#g#d#'#d#h#i#7@q@!+6@j#k#l#m#      s 3.d + ~           K s               ",
"      f.          i   i (.n#o#m +     p#q#r#s#t#u#A+v#b+!#U@w#x#Y@y#y#z#A#B#C#D#E#E#      !   F## ]             G#              ",
"      H#        '   { h@% =   ^ b.    I#J#o@v#K#L#M#{+b+b+N#_+O#6@{@K+ #P#Q#R#S#T#U#)       <@m.% =             S               ",
"      <+        l -         )     +   V#W#X#Y#Z#b+X.`#z#b+ $.$K++$6@@$Z##$$$%$&$*$                  f           M@+             ",
"                  a ^   ~         '     =$-$+@U@p+)+;$>$,$p@B.'$)$X@6+5#E@E@!$=$~$                  i       # p 0               ",
"    # ,       % [ {$& # ]     ^ - o     ]$=$^$/$($/$/$_$:$p+e#<$_$[$($($}$|$1$2$S               +       # % C 4.: # %           ",
"    3.'     % # < u % % =   : 4.S 3$n /   4$T#E#E#E#S#D#5$6$7$8$9$E#0$a$b$c$d$=               -     + ' % @ y.  $ %             ",
"  % ;                     ^.      0 ,.e$8   ^ f : m f$g$h$D#i$j$k$    ;.        )         l$|.+   4 + m$n$o$p$q$= % %           ",
"% #                       -     ^         r$    '         s$t$u$      v$w$  ~           I...*.& p 0   8 x$$ #     # # %         ",
"#                   m.4.0.  & & e$    ~         y$  ~       i       & z$A$# ]             B$C$C 4.:   S+%+            # %       ",
"                  % ] D$E$~.% [ H.& # ]         !.# r           # % d p.; % =             x.~       F$G$+                       ",
"                      m ,.)     2 % % =       m k % =     z 4 <@m.      +     f         ;./     # y@~.> +                       ",
"                                        f             S+H$[ k J.              i       I$J$K$m b.L$I                       @     ",
"                  M$'         n         i       N$    i         f         n       # x.O$P$[++.                        # # %     ",
"              # # %               / +       # Q$R$S$      @     i     f+&  .      9   m T$U$                E$+   - ; % % =     ",
"            &.% % =               e$g V$_.9 W$q.X$Y$T m : d         !.% % q$          ~ ;               Z$# $     '         )   ",
"                    `$              e  %e e [@& .%+%s +.+.f.I       ,.      f           x++           9#% % =                   ",
"                    ~                 = #       # =       & r         G#    i       # @%m                     #%                ",
"                                      =           =       #         ]           # % x.e.'                     . +               ",
"                  # h               =             %               %             b 5 a#                        ^               # ",
"              # # %                 % %           %                         e j $%                                        # # % ",
"            a#% % E       @#{     %                 %                   - ; % % =                 & *                 %%% % % = ",
"                      # # %                                             '         )           # # %                   n         ",
"                  %%% % % =                                                                 ! % % =               @##  .        ",
"                  :         m                                                                       {         / x.% % =         ",
"                                                                                                              :         T       ",
"                                                                                                                        -       "};
