/* XPM */
static char * exit_xpm[] = {
"64 64 427 2",
"  	c #6F736A",
". 	c #6D7269",
"+ 	c #6E7269",
"@ 	c #686C64",
"# 	c #686B63",
"$ 	c #63675F",
"% 	c #6A6E66",
"& 	c #6E726A",
"* 	c #686C65",
"= 	c #575B54",
"- 	c #686C63",
"; 	c #777C70",
"> 	c #777B70",
", 	c #6C7067",
"' 	c #666B64",
") 	c #595D57",
"! 	c #5D615A",
"~ 	c #535E60",
"{ 	c #443528",
"] 	c #443629",
"^ 	c #473A2E",
"/ 	c #4D4439",
"( 	c #554F45",
"_ 	c #5B594F",
": 	c #868B7C",
"< 	c #4D504A",
"[ 	c #4C4F49",
"} 	c #6D7168",
"| 	c #676B64",
"1 	c #454943",
"2 	c #5B5F57",
"3 	c #6C7068",
"4 	c #ACA492",
"5 	c #D2CEBC",
"6 	c #EDEBDB",
"7 	c #D1CDBB",
"8 	c #D0CCBA",
"9 	c #A8A08F",
"0 	c #4F473D",
"a 	c #5C5A50",
"b 	c #858A7B",
"c 	c #6A6D65",
"d 	c #393D37",
"e 	c #73776D",
"f 	c #50544D",
"g 	c #666C67",
"h 	c #585E5D",
"i 	c #4C5350",
"j 	c #4A4E47",
"k 	c #3B3F39",
"l 	c #FFFFF3",
"m 	c #A7A08F",
"n 	c #5A574D",
"o 	c #818678",
"p 	c #808578",
"q 	c #51544E",
"r 	c #6B6E66",
"s 	c #696D64",
"t 	c #62665E",
"u 	c #71756B",
"v 	c #666A62",
"w 	c #616661",
"x 	c #515755",
"y 	c #3E4443",
"z 	c #40443E",
"A 	c #63675E",
"B 	c #D1CDBC",
"C 	c #6A6E65",
"D 	c #6B6F66",
"E 	c #5D6159",
"F 	c #676B62",
"G 	c #4B4F48",
"H 	c #656962",
"I 	c #545850",
"J 	c #50534D",
"K 	c #6D7166",
"L 	c #ABA391",
"M 	c #4E463B",
"N 	c #70746A",
"O 	c #565952",
"P 	c #4F524C",
"Q 	c #545851",
"R 	c #8E8475",
"S 	c #8C8374",
"T 	c #474138",
"U 	c #828779",
"V 	c #6B7068",
"W 	c #7D8275",
"X 	c #4D5049",
"Y 	c #8D8475",
"Z 	c #534D43",
"` 	c #585C55",
" .	c #767A6F",
"..	c #656A64",
"+.	c #6B6F67",
"@.	c #565A52",
"#.	c #84887A",
"$.	c #60645C",
"%.	c #6E7169",
"&.	c #7C8074",
"*.	c #818577",
"=.	c #8C8677",
"-.	c #49453D",
";.	c #555852",
">.	c #838879",
",.	c #696D65",
"'.	c #60655F",
").	c #74786E",
"!.	c #585B54",
"~.	c #585B55",
"{.	c #72766D",
"].	c #7B7061",
"^.	c #7D7566",
"/.	c #41372C",
"(.	c #676A62",
"_.	c #696C64",
":.	c #52554F",
"<.	c #6E7368",
"[.	c #595D55",
"}.	c #62665F",
"|.	c #796F60",
"1.	c #46382C",
"2.	c #4C4F4A",
"3.	c #494D4C",
"4.	c #5E625A",
"5.	c #7D8175",
"6.	c #73786D",
"7.	c #8D8375",
"8.	c #818578",
"9.	c #51544D",
"0.	c #535753",
"a.	c #656961",
"b.	c #565A53",
"c.	c #57493B",
"d.	c #8A8274",
"e.	c #F4F4E8",
"f.	c #ECEADA",
"g.	c #646860",
"h.	c #5C6058",
"i.	c #555851",
"j.	c #70746B",
"k.	c #7E8376",
"l.	c #74796E",
"m.	c #6D6152",
"n.	c #6C6253",
"o.	c #E7EBDE",
"p.	c #E0E0D0",
"q.	c #4D5658",
"r.	c #4A514F",
"s.	c #4C5049",
"t.	c #52554E",
"u.	c #4E514A",
"v.	c #787D71",
"w.	c #707469",
"x.	c #6E7369",
"y.	c #0C0B0B",
"z.	c #1F4638",
"A.	c #EBE9D9",
"B.	c #C1C1AF",
"C.	c #295140",
"D.	c #204738",
"E.	c #0E0D0D",
"F.	c #0C0C0B",
"G.	c #3D4A53",
"H.	c #384147",
"I.	c #393F3F",
"J.	c #424640",
"K.	c #51554E",
"L.	c #63675D",
"M.	c #64675F",
"N.	c #232424",
"O.	c #7ABA7C",
"P.	c #325B46",
"Q.	c #76B57A",
"R.	c #79B97B",
"S.	c #374047",
"T.	c #3C4241",
"U.	c #464A43",
"V.	c #5A5D56",
"W.	c #6D7068",
"X.	c #A4DE89",
"Y.	c #224839",
"Z.	c #78B77B",
"`.	c #99D184",
" +	c #78B87B",
".+	c #555954",
"++	c #61645D",
"@+	c #6C6F67",
"#+	c #595C55",
"$+	c #666A61",
"%+	c #A3DD89",
"&+	c #A1DA87",
"*+	c #214839",
"=+	c #121211",
"-+	c #61655C",
";+	c #5C5F58",
">+	c #171818",
",+	c #7BBB7C",
"'+	c #272827",
")+	c #20211F",
"!+	c #70736B",
"~+	c #6F736B",
"{+	c #656860",
"]+	c #7B7F73",
"^+	c #6F746A",
"/+	c #443729",
"(+	c #242525",
"_+	c #1F201E",
":+	c #72766C",
"<+	c #70736A",
"[+	c #191C19",
"}+	c #24301E",
"|+	c #22331F",
"1+	c #171F17",
"2+	c #23232A",
"3+	c #0E0D10",
"4+	c #0F0E0F",
"5+	c #1A1A19",
"6+	c #494C46",
"7+	c #252926",
"8+	c #323B21",
"9+	c #1F2A1B",
"0+	c #110A09",
"a+	c #6D6252",
"b+	c #2E302C",
"c+	c #383733",
"d+	c #222D20",
"e+	c #1E0903",
"f+	c #1C0000",
"g+	c #231513",
"h+	c #ACA592",
"i+	c #292933",
"j+	c #373532",
"k+	c #7B8073",
"l+	c #A03B2B",
"m+	c #1B1B21",
"n+	c #ECEBDA",
"o+	c #52564F",
"p+	c #61645C",
"q+	c #242321",
"r+	c #34364A",
"s+	c #574A3B",
"t+	c #5A5E57",
"u+	c #60635C",
"v+	c #5A5E56",
"w+	c #838779",
"x+	c #787C71",
"y+	c #84897B",
"z+	c #535650",
"A+	c #666961",
"B+	c #5B5F58",
"C+	c #6E7268",
"D+	c #4A4E4A",
"E+	c #7D8274",
"F+	c #50534C",
"G+	c #7B8074",
"H+	c #797E72",
"I+	c #4C0C0C",
"J+	c #414760",
"K+	c #6E6453",
"L+	c #6E6553",
"M+	c #45382A",
"N+	c #7D8174",
"O+	c #62655C",
"P+	c #5D6059",
"Q+	c #353838",
"R+	c #3A3E38",
"S+	c #70766B",
"T+	c #2E261B",
"U+	c #8E8575",
"V+	c #8F8876",
"W+	c #47402D",
"X+	c #575B53",
"Y+	c #62655D",
"Z+	c #565750",
"`+	c #353837",
" @	c #4D514B",
".@	c #71796B",
"+@	c #716B60",
"@@	c #576882",
"#@	c #48412E",
"$@	c #64685F",
"%@	c #37312D",
"&@	c #797E71",
"*@	c #70786B",
"=@	c #222330",
"-@	c #2B2E3F",
";@	c #191C11",
">@	c #14110C",
",@	c #6B7069",
"'@	c #6E736A",
")@	c #6E746A",
"!@	c #70776B",
"~@	c #372828",
"{@	c #394455",
"]@	c #14120C",
"^@	c #61655D",
"/@	c #70756B",
"(@	c #6F756A",
"_@	c #1B1715",
":@	c #575A53",
"<@	c #7A7E72",
"[@	c #70756A",
"}@	c #5D564D",
"|@	c #140F0D",
"1@	c #656960",
"2@	c #828678",
"3@	c #71766C",
"4@	c #1E0504",
"5@	c #514940",
"6@	c #474036",
"7@	c #6D7167",
"8@	c #0A090A",
"9@	c #4E514B",
"0@	c #6DA876",
"a@	c #8ECF81",
"b@	c #60574A",
"c@	c #84897A",
"d@	c #171817",
"e@	c #51554D",
"f@	c #73776C",
"g@	c #4F524B",
"h@	c #4F5152",
"i@	c #3B3B3A",
"j@	c #6D7169",
"k@	c #7A7F73",
"l@	c #7F8477",
"m@	c #777C71",
"n@	c #1E1F1F",
"o@	c #505450",
"p@	c #525755",
"q@	c #5F6460",
"r@	c #5B5E57",
"s@	c #757A6F",
"t@	c #303335",
"u@	c #4D514F",
"v@	c #686D66",
"w@	c #61645B",
"x@	c #454037",
"y@	c #3D4040",
"z@	c #5A5D58",
"A@	c #545750",
"B@	c #5D6161",
"C@	c #6B6F68",
"D@	c #696E67",
"E@	c #676B63",
"F@	c #141414",
"G@	c #343536",
"H@	c #556061",
"I@	c #4A5457",
"J@	c #555C5B",
"K@	c #61665C",
"L@	c #CBECA3",
"M@	c #646B66",
"N@	c #5F6662",
"O@	c #646963",
"P@	c #6F7369",
"Q@	c #71716F",
"R@	c #6F726A",
"S@	c #41453E",
"T@	c #0B0A0A",
"U@	c #585C54",
"V@	c #60584B",
"W@	c #131313",
"X@	c #60635B",
"Y@	c #635D51",
"Z@	c #212222",
"`@	c #8A8580",
" #	c #4A4A49",
".#	c #62655E",
"+#	c #4D514E",
"@#	c #525753",
"##	c #6F7269",
"$#	c #6A6B61",
"%#	c #57574E",
"&#	c #2F312E",
"*#	c #5A5754",
"=#	c #464138",
"-#	c #61594C",
";#	c #444744",
">#	c #505553",
",#	c #606561",
"'#	c #6A6D64",
")#	c #4A4C47",
"!#	c #545655",
"~#	c #606462",
"{#	c #616563",
"]#	c #5F6362",
"^#	c #191513",
"/#	c #4E4C43",
"(#	c #67655B",
"_#	c #646861",
":#	c #83887A",
"<#	c #5F635B",
"[#	c #60635F",
"}#	c #656862",
"|#	c #6A6E67",
"1#	c #666A65",
"2#	c #393A35",
"3#	c #5E6262",
"4#	c #130C0B",
"5#	c #110B09",
"6#	c #5E6261",
"7#	c #565857",
"8#	c #595B59",
"9#	c #41443F",
"0#	c #64675E",
"a#	c #5C5F57",
"b#	c #626663",
"c#	c #383934",
"d#	c #312A26",
"e#	c #1A1614",
"f#	c #646865",
"g#	c #5F6360",
"h#	c #61655F",
"i#	c #666B63",
"j#	c #5C605A",
"k#	c #858A7C",
"l#	c #5F635D",
"m#	c #61645F",
"n#	c #555750",
"o#	c #3E3F3A",
"p#	c #535655",
"q#	c #4F5150",
"r#	c #60635E",
"s#	c #464944",
"t#	c #343733",
"                                          .   + @ #     $ % & * = - &                                                   ; +     ",
"          >                           + ,   + ' ) !     ~ { { ] ^ / ( _                                             : : <       ",
"      : : [                           } } & | 1 2 3   { { 4 5 5 6 7 8 9 0 a                         b c         ; [ [ [ d       ",
"  e f [ [ d                           g h i j k 2   { 4 5 5 6 6 l 6 6 5 7 m n                   o p q           r         s     ",
"  }         t             u v         w x y z z A { 4 5 5 6 6 l l l 6 6 5 B m a           C   D C C E + +   +                   ",
"        u               + F G           H I q J K { 4 5 6 6 l l l l l 6 6 5 L M N     & c O           , +   +                   ",
"    b : P                     Q           , r r { R 4 5 6 6 l l l l l 6 6 5 4 S T U         Q           e   V +                 ",
"  E [ [ d                 +   W         X       { R 4 5 6 6 6 l l l 6 6 6 5 4 Y Z ` b       W         X    ...+.+               ",
"          @.          #.$.%.  &.        [ *.  ] R R 4 4 5 6 6 6 l 6 6 6 5 4 4 R =.-.;.      &.        [ >.,.'.% +               ",
"          ).      : b !.                  ~.{.{ ].R R 4 5 5 6 6 6 6 6 5 5 4 R R ^./.(._.                :.C <.                  ",
"              : [ < :.[.    : s       [ [ }.+ { ].R R 4 4 5 5 6 6 6 5 5 4 4 R R |.1.      : s       [ [ 2.3.V   U b             ",
"              [         ,   4.}     [ : 5.6.  { ].].R R 4 5 5 5 5 5 5 B L 7.R ].].{       4.}     [ : 8.9.0.%.a.b.< :     5.c   ",
"                        u & C                 { ].c.6 l R 4 5 5 5 5 5 L d.e.f.c.].{     & C             g.% & * h., i.b : [     ",
"                    j.> k.l.                    { 5 5 6 l m.4 5 5 5 4 n.o.p.5 5 {                       ~ q.r.s.t.D u.[ [ d     ",
"              v.    } w.w.x.y.y.              { 4 5 z.z.5 6 m.4 4 4 m.A.B.C.D.5 4 {               E.F.  G.H.I.J.K., $       d   ",
"          : : [   } a.L.J M.y.N.y.            { 4 z.O.O.z.5 6 R 4 R 6 7 P.Q.R.z.4 {             y.N.y.  S.T.U.q V.+         : f ",
"        b.[ [ d   + W.# r }   y.N.y.          { R z.O.X.O.z.5 5 5 5 5 Y.Z.`. +z.R {           y.N.y.    .+++s r @+D         : #+",
"                $.  $++         y.N.y.y.      { R z.O.X.X.O.z.5 6 5 z.O.%+&+ +*+R {       y.y.N.=+    } s ,       }           -+",
"                  ;+).          y.N.N.>+y.      { R z.O.O.O.z.6 l 6 z.O.O.,+Y.R {       y.>+N.'+)+    +   !+~+  r         U {+  ",
"                  ]+              y.N.N.>+y.y.^+^+/+R z.z.z.4 6 c.6 4 z.z.z.R {     y.y.>+N.(+_+V.            ~+    +           ",
"                :+(.        <+      y.N.N.[+}+|+1+2+{ ].R 4 5 c.z.c.5 4 R ].{ 2+3+y.4+>+N.N.5+    Q                             ",
"              , M.6+            <+  y.N.N.7+8+9+y.0+0+{ 4 4 5 a+4 m.5 4 4 { 2+2+3+4+>+N.N.N.b+    W         X   j.              ",
"                    Q           <+    y.N.c+d+e+f+g+0+{ 4 5 5 h+5 4 5 5 4 { i+2+4+>+N.j+N.y.      &.        [ >.+               ",
"              k+    W         X         y.N.c+f+l+0+m+i+{ 4 a+n+m.6 m.4 { i+i+i+>+N.j+N.y.                    o+6.              ",
"          : : p+    &.        [ ]+      { ].N.q+0+0+r+i+{ c.c.s+c.c.c.c.{ i+r+i+>+j+N.].{       : s       [ [ t+C               ",
"        ;+[ [ t+                u+u       { ].0+g+0+r+i+{ 4 6 m.6 m.6 4 { i+r+i+N.N.].{         v+}     [ : w+x+    + +         ",
"                % y+%       9.z+A++       { f+g+0+m+r+r+r+{ R 4 5 4 R { r+r+r+i+>+].R { > C F D B+                C+D+3         ",
"            B+E+5.F+      - G+H+e       f+f+l+I+g+0+r+r+J+r+{ { { { { r+J+r+r+i+].K+L+M+N+O+P+    `               Q+'..         ",
"              r ;+R+                  S+S+T+f+g+g+0+0+0+J+J+i+r+J+r+i+J+J+r+r+i+m.U+V+W+X+Y+, Z+  W         X   } `+ @          ",
"                    Q                 .@.@{ +@0+0+m+0+0+0+0+r+J+J+J+r+@@J+r+r+i+].R h+#@$@f+%@    &.        [ U   &@>.<         ",
"                    W         X       ^+*@{ 0+g+0+i+=@-@-@0+0+J+J+J+r+@@J+J+r+i+].R 4 ;@>@l+%@                :.).,@+ : [       ",
"                    &.        [ ]+'@)@*@!@{ 0+g+~@0+r+J+J+{@0+0+J+J+r+f+J+J+r+i+m.0+0+]@0+0+    : s       [ [ = s &             ",
"                                ^@/@  (@S+0+g+0+g+~@0+J+@@r+-@0+0+J+J+f+@@J+0+0+0+0++@T+  0+_@  :@}     [ : b <@                ",
"                  : s       [ :@- +     [@0+0+}@0+g+~@0+@@r+J+-@0+0+f+l+f+0+g+0+l+f+4 {     |@, 1@        +                     ",
"                  i.}     [ 2@v.3@4@    0+0+}@R 5@0+g+g+0+r+J+J+-@0+g+I+g+0+0+6@f+f+R {     0+                &.i.              ",
"    ).          , 7@        ^+      f+f+g+0+R m.m.8@0+I+g+0+J+J+J+-@0+0+0+-@8@4+6@6@f+4 {                   j.C                 ",
": : 9@                              f+l+g+0+m.R >+>+f+l+f+g+0+J+J+0@=@m+-@4+4+>+>+R 6@R {                                       ",
"[ [ d                                 0+0++@R N.N.>+8@f+5@0+0+0+R 0@0@R ].4+4+>+N.N.R 4 {                       j.              ",
"      Q                               0+0+R N.j+>+4+4+f+R +@0@0@0@a@0@4 R ].4+4+>+j+N.R { b@                                    ",
"      W         X                   j.0+}@N.j+N.>+4+].}@4 0@a@a@a@0@4 R 4 R ].4+>+N.j+N.R {                                     ",
"      &.        [ c@              + b@0+N.j+N.>+4+].R 4 0@a@X.a@0@0@0+R 4 4 R ].4+>+N.j+N.y.b@                                  ",
"                  P W D             y.d@N.N.>+4+].R 4 2+0@a@a@0@f+0+0+2+2+2+4 R ].4+>+N.N.N.y.                                  ",
"    : s       [ [ 9@e@-             y.N.N.>+4+].2+2+i+r+0@a@0@=@=@=@0+0+i+r+f+2+2+].4+>+N.N.y.                    ).f@e         ",
"    g@}     [ : : b   %           y.N.N.>+h@i@2+i+i+r+J+0@0@=@J+J+J+0+g+f+f+=@i+i+2+i@h@>+N.N.y.      + D +.j@    k@l@m@        ",
"  [ f                 ,         y.N.N.>+0+h@h@i+i+r+J+i+r+0@0@J+J+J+-@0+l+f+J+r+i+i+h@f+n@>+N.N.y.    D o@p@q@    u 7@j.        ",
"[ :               j.w.r@, s@s@  y.N.y.y.0+0+h@i+r+r+J+i+J+0@a@J+0@J+J+0+g+g+0+0+r+i+h@f+n@y.y.N.y.    v t@u@v@      s@V.        ",
":                 N w@;+, s@s@y.N.y.b@x@0+y@0+i+r+J+f+r+J+J+0@J+0@J+J+-@0+0+0+g+0+0+f+l+f+x@b@y.N.y.  @ y@z@          8.<       ",
"                N A@#+      y.N.y.b@b@0+0+B@0+0+f+f+{@r+J+J+J+J+0@0@J+J+-@=@{@0+0+0+g+I+0+x@b@b@y.N.y.& C@D@V       v 3         ",
"                , E@,       y.y.    b@0+F@B@G@0+l+f+@@r+J+J+J+0@a@a@0@J+J+r+@@-@=@=@0+0+g+0+b@  f+y.y.,@H@I@J@      @           ",
"                } $ K@&.u           0+0+n@B@B@0+0+-@@@r+J+J+0@a@L@0@r+J+J+r+@@J+J+r+y@y@0+g+f+f+      . M@N@O@            >     ",
"                  P@4.w.            0+x@n@B@B@=@0+0+r+J+J+0@a@X.a@0@r+J+J+J+r+@@J+r+B@B@F@0+l+f+                      : : [     ",
"              : b b.v :.r       0+0+l+f+n@Q@B@r+-@0+0+J+J+0@a@a@0@J+r+J+J+J+r+@@J+r+B@Q@n@x@0+0+        R@    R@  e f [ [ d     ",
"            ;+[ [ S@% !.r     0+    f+f+n@Q@B@r+J+0+0+J+J+0@a@0@T@T@r+@@J+J+r+@@J+r+B@Q@n@x@b@0+0+          +     }         t   ",
"                    U@r +           b@x@f+Q@B@r+J+0+0+J+J+T@0@0@0@0@T@r+J+J+r+@@J+r+B@Q@n@x@b@b@0+0+0+P@    +                   ",
"                    u               b@x@F@Q@B@r+J+{@0+0+T@0@0@0@X.0@0@T@J+J+r+@@J+r+B@Q@n@x@b@  b@b@b@0+      a.@               ",
"                          + ,       V@x@n@Q@B@r+J+@@0+0+0+W@0@0@0@0@W@T@r+J+r+@@J+r+B@Q@n@x@b@      D 1@%.    :+E@              ",
"                  : u+  :+s X@      Y@-.Z@`@Q@Q@Q@Q@0+ #0+0+W@W@W@W@T@B@B@Q@Q@Q@Q@Q@Q@`@n@x@b@    .#+#@###  ##  +             : ",
"              : : [     C+$.,       $#%#&#B@`@`@`@`@0+`@*#0+0+T@T@T@Q@f+`@`@`@`@`@`@`@B@n@=#-#    ;#>#,#  . @ , +         : : [ ",
"            = [ [ s.  + $@u.          '#)#!#~#{#{#]#^#B@B@y@0+0+B@f+f+y@B@B@B@B@B@B@B@h@'+/#(#    (.,.e j@' _#3 &     H+[ [ [ d ",
"                      :#v.  Q           <#[#}#|#|#1#2#3#B@B@y@4#5#l+f+B@B@B@6#3#]#~#7#8#9#0#+           + {+,         N         ",
"                  H+[ A@(.  W         X D }         a#b#]#{#{#c#d#e#y@6#3#f#g#h#i#j#| A+t                 +       k#: i.        ",
"                  ,         &.        [ U 4.          l#m#* % E@n#o#p#q#r#% _., M.6+                          u V.[ [ d         ",
"                                        i.W       & X K.          p+s#t#            Q               X       [.+         2       ",
"                          y+s       [ [ 4.>         h.  Q           g.  Q           W         X     [ c@    #+U         e       "};
