/* XPM */
static char * floor_xpm[] = {
"64 64 261 2",
"  	c #6F736A",
". 	c #777C70",
"+ 	c #6E7269",
"@ 	c #777B70",
"# 	c #868B7C",
"$ 	c #4D504A",
"% 	c #4C4F49",
"& 	c #858A7B",
"* 	c #6A6D65",
"= 	c #393D37",
"- 	c #73776D",
"; 	c #50544D",
"> 	c #6B6E66",
", 	c #696D64",
"' 	c #6D7168",
") 	c #62665E",
"! 	c #5D6159",
"~ 	c #71756B",
"{ 	c #676B63",
"] 	c #4F524C",
"^ 	c #70746B",
"/ 	c #72766C",
"( 	c #7E8375",
"_ 	c #4E514A",
": 	c #6C7067",
"< 	c #84897A",
"[ 	c #51544E",
"} 	c #75796F",
"| 	c #656860",
"1 	c #565953",
"2 	c #666A62",
"3 	c #3F433D",
"4 	c #767B70",
"5 	c #7A7E72",
"6 	c #4E524B",
"7 	c #797E71",
"8 	c #585C54",
"9 	c #60645C",
"0 	c #6A6E65",
"a 	c #61645D",
"b 	c #565952",
"c 	c #40433D",
"d 	c #5E625A",
"e 	c #828779",
"f 	c #565A52",
"g 	c #74796E",
"h 	c #60635C",
"i 	c #74786E",
"j 	c #818678",
"k 	c #545750",
"l 	c #5D6059",
"m 	c #6B6F66",
"n 	c #70746A",
"o 	c #686C64",
"p 	c #7F8477",
"q 	c #5F625A",
"r 	c #50534D",
"s 	c #83887A",
"t 	c #62665C",
"u 	c #73776B",
"v 	c #52554F",
"w 	c #7B7F72",
"x 	c #464A44",
"y 	c #3B3F39",
"z 	c #7B7F73",
"A 	c #444842",
"B 	c #686C63",
"C 	c #53564F",
"D 	c #434740",
"E 	c #4C5049",
"F 	c #63685F",
"G 	c #74786D",
"H 	c #7D8175",
"I 	c #7C8174",
"J 	c #585C53",
"K 	c #5C6058",
"L 	c #6D7369",
"M 	c #4A4E47",
"N 	c #52564F",
"O 	c #7B8074",
"P 	c #696D63",
"Q 	c #50534C",
"R 	c #677568",
"S 	c #5A5D56",
"T 	c #5B5F57",
"U 	c #42463F",
"V 	c #818578",
"W 	c #787D71",
"X 	c #5F635B",
"Y 	c #6A6E66",
"Z 	c #647466",
"` 	c #818677",
" .	c #555851",
"..	c #64675F",
"+.	c #7F8376",
"@.	c #828678",
"#.	c #687065",
"$.	c #62695F",
"%.	c #565A53",
"&.	c #5C5F58",
"*.	c #6B6F67",
"=.	c #5E615A",
"-.	c #3C403A",
";.	c #6F746A",
">.	c #828778",
",.	c #595C55",
"'.	c #656961",
").	c #5B5F56",
"!.	c #6D7166",
"~.	c #5F625B",
"{.	c #61655C",
"].	c #595D55",
"^.	c #73786D",
"/.	c #797D72",
"(.	c #62655D",
"_.	c #808476",
":.	c #686B63",
"<.	c #545751",
"[.	c #787C71",
"}.	c #4E514B",
"|.	c #52554E",
"1.	c #4F524B",
"2.	c #808577",
"3.	c #646860",
"4.	c #7A8073",
"5.	c #6D7169",
"6.	c #6D7167",
"7.	c #71756C",
"8.	c #65685E",
"9.	c #72776D",
"0.	c #666A61",
"a.	c #545851",
"b.	c #484C46",
"c.	c #676B62",
"d.	c #585B54",
"e.	c #797E70",
"f.	c #6F7369",
"g.	c #666961",
"h.	c #454842",
"i.	c #535650",
"j.	c #575A53",
"k.	c #7E8376",
"l.	c #6A6D64",
"m.	c #5E625B",
"n.	c #5A5E56",
"o.	c #64685F",
"p.	c #474A44",
"q.	c #6E7169",
"r.	c #70746C",
"s.	c #818779",
"t.	c #61655B",
"u.	c #595D54",
"v.	c #777C71",
"w.	c #555951",
"x.	c #60665D",
"y.	c #63675E",
"z.	c #63665F",
"A.	c #5E6259",
"B.	c #51554E",
"C.	c #61645C",
"D.	c #7A7E73",
"E.	c #7C8074",
"F.	c #41453F",
"G.	c #6E7268",
"H.	c #5B5F58",
"I.	c #7F8476",
"J.	c #7D8174",
"K.	c #5C6156",
"L.	c #5E6461",
"M.	c #696E68",
"N.	c #575B53",
"O.	c #52564D",
"P.	c #696D65",
"Q.	c #616965",
"R.	c #6E726A",
"S.	c #6C736E",
"T.	c #818577",
"U.	c #6E7369",
"V.	c #84887A",
"W.	c #757A6F",
"X.	c #797E72",
"Y.	c #606661",
"Z.	c #51544D",
"`.	c #676A60",
" +	c #5D615A",
".+	c #70766B",
"++	c #555A50",
"@+	c #484B45",
"#+	c #4B4E48",
"$+	c #767A6F",
"%+	c #656960",
"&+	c #5D6058",
"*+	c #73776E",
"=+	c #7D8275",
"-+	c #596554",
";+	c #3E423C",
">+	c #858A7C",
",+	c #7B8073",
"'+	c #70756B",
")+	c #63675F",
"!+	c #5D6158",
"~+	c #63675D",
"{+	c #585C55",
"]+	c #75826D",
"^+	c #707469",
"/+	c #5B5E57",
"(+	c #727B6C",
"_+	c #61655D",
":+	c #575B54",
"<+	c #787F71",
"[+	c #66735E",
"}+	c #6D7165",
"|+	c #797D71",
"1+	c #7E8275",
"2+	c #5A5D55",
"3+	c #666B62",
"4+	c #454943",
"5+	c #40443E",
"6+	c #3C3F39",
"7+	c #84897B",
"8+	c #535750",
"9+	c #686B61",
"0+	c #494D47",
"a+	c #838879",
"b+	c #5E6159",
"c+	c #50544C",
"d+	c #3F433C",
"e+	c #353933",
"f+	c #3A3E38",
"g+	c #737D6C",
"h+	c #72786C",
"i+	c #454942",
"j+	c #727E6C",
"k+	c #858C7A",
"l+	c #808477",
"m+	c #4D5049",
"n+	c #5A5D57",
"o+	c #75796E",
"p+	c #7E8274",
"q+	c #808B79",
"r+	c #738972",
"s+	c #768D6F",
"t+	c #5E6258",
"u+	c #768071",
"v+	c #5B695C",
"w+	c #537460",
"x+	c #526554",
"y+	c #566E5D",
"z+	c #677467",
"A+	c #494C46",
"B+	c #62665D",
"C+	c #3E413B",
"D+	c #517862",
"E+	c #474943",
"F+	c #828679",
"G+	c #545850",
"H+	c #464A43",
"I+	c #272925",
"J+	c #74786C",
"K+	c #4B4F48",
"L+	c #555952",
"                                                                                                                        . +     ",
"          @                                                                                                         # # $       ",
"      # # %                                                                                         & *         . % % % =       ",
"  - ; % % =                                                                                     # # %           >         ,     ",
"  '         )                         % #                                                     ! % % =                           ",
"        ~                               % %                         # # %                             {                         ",
"    & # ]                     ^ / (     _                   $ ^ : < [ $         % #           / } |   1 <                       ",
"  ! % % =                   : 2 % 3 4 5 6           % #     % 7 8 9 9             % #       0 a b c     d e                     ",
"          f           # %     g     )                 % # [ f *   )             # % %         +     )     h                     ",
"          i       # # %         ~         { j       & [ k l m ~ n ~ o           # = % %   p     ~         m p                   ",
"              # % % % =     & # ]           q r # s t u v w # ] o h x         & y         9 & # ]           z   # #             ",
"              %         A B % % =           9 [ C 6 % % D k _ E       F / B G 8     ^ >   2 % % =           9 [ % % #     H *   ",
"                        I !       f         l J K L       n - |   ^ + * a M   +   ' 2 N   -       f           /     k & # %     ",
"                        O +       i       e P Q R     G G S T U ^ '         )           )         i       V } +     % % % =     ",
"              W             n         # $ X Y Z L & ` ] K |     )       ^                     +       #  ...:       )       =   ",
"          # # %       +.@.& 1         b   n ~ #.$.%.&.m     ~           )               ^           *.=.: 5                 # ; ",
"        %.% % =       N % % -.          + o h x ;.      >.# ]           B             / a       ~           d               # ,.",
"                X   $ 1 '.    ).          ^     )   j ( $ % =             K           !.y     i ~.                            {.",
"                  % #   ].^./.(.      _.-   ~   ^ :.k <.'.    f           [.      # V B   )     m             +.}.        e |   ",
"                  #     M |.1.=   ~ o , 2.# ] m 3.%.          i       # 4.5.  # %  ...6.          {         7.8.+               ",
"                        9       3.9.0.: {.a.b.      c.    7.      # % l * +   d.  I < ]           ^       # e.B                 ",
"                            ~ f.g.! h.        ' ~             4 B i.'           m j.% U               # % $ a = #               ",
"                        & # r 0 0     )     / k.v           ^ l.m.              : B n.  o.        ' - k         %               ",
"              # %     2 % ] ;     ~           '.p.          q.l 3         n r.B       )         s.t.o           %               ",
"          # # %   2.  n ~ :   p # ]               u.7.0       v.+ f     + g.! w.  ~         ^ x.y.*.)                           ",
"        &.% % =   d.s , z.A.} B.% =             + : C.6   [.D.m   i       i   E.# ]             ~                               ",
"                F.v d.9     3.+     f           @ +     )   ' ,       e 6.  G.d.% =           7.H.                # %           ",
"            H.I.# e     ~           i       # J.m   ~           + + { ! e # b       f         ' K.+         G   % %             ",
"                    < # ]               # % S { p # ]           { L.M.c.$ % U       i       # j B N.        B O.= % %           ",
"                  2 % % =           ^   d.y.  P.] % =           B Q.R.        d         # % $ a m i       # # :   # # %         ",
"                          f         m     i           f         *.S.& T.m     i         % U.  n       # % j.c.+       # %       ",
"                ^ S '     i       V.W.'       e '.    i       # X.Y.% Z.K         j q 9 o.:   o       r                         ",
"              *.3.Z.          # % `. +o       r           # % a.o + .+    0.      $                         S                   ",
"                    )         ++'.f @+#+    ^       $+    C       > 0     i     G @ =.          '         ' v.+                 ",
"                ~             +         )       +.i.%+J.+.&+/ *+g.      +     =+-+C ;+            ^ >   e 2.B >+%               ",
"    i       ,+# ]               '+  ~           B )+P.k !+~+{+'.j.            '.]+    f         m 0 w.B 2 ^+J.}.                ",
"# # }.    ' ~.% =               I.# ]           + !   { /+] =     Y     ^ :     (+^   *+      s [.    )     _+                  ",
"% % =             f       ^   $+:+% =               %+        )     + > '.8   / <+[+      s 1.d + ~           K s               ",
"      a.          i   i /.}+|+m +     f           v.      ~                 9 (.a.=       !   1+# ]             {+              ",
"      =+        '   { `.% =   ^ 7.    i       # 1+m   & # 2+|           ~           )       c.d.% =             S               ",
"      E.        l -         )     +       # % j.0.' 3+% % 4+5+      ,+& ]       ~                   f           v.+             ",
"                  a ^   ~         '       }.          '+      )     B :+6+  2.7+8+                  i       # p 0               ",
"    # ,       % [ C.& # ]     ^ - o       -       # 5     ~               {.9+% n.              +       # % C 3.: # %           ",
"    1.'     % # < u % % =   : 3.S 0+n /       # % b * ` # ]             0 _+v =               -     + ' % @ k.  $ %             ",
"  % ;                     ].      0 ,./+8   ^ f : m ) $ % =           ;.        )         a+[.+   4 + b+c+d+e+f+= % %           ",
"% #                       -     ^         %+    '           f         g+h+  ~           o...*.& p 0   8 i+$ #     # # %         ",
"#                   d.3.5.  & & /+    ~         j+  ~       i       & <+k+# ]             l+m+C 3.:   N.w.            # %       ",
"                  % ] n+o+!.% [ n.& # ]         2.# r           # % d g.; % =             j.~       p+~++                       ",
"                      m ,.)     2 % % =       m k % =     z 4 c.d.      +     f         ;./     # #+!.> +                       ",
"                                        f             N.P.[ k p.              i       q+r+s+m 7.t+I                       @     ",
"                  D.'         n         i       u+    i         f         n       # j.v+w+F.+.                        # # %     ",
"              # # %               / +       # x+y+z+      @     i     I.&  .      9   m A+7+                o++   - ; % % =     ",
"            &.% % =               /+g B+(.9 C+h.D+E+T m : d         2.% % f+          ~ ;               F+# $     '         )   ",
"                    G+              e H+e e V.& I+;+s +.+.a.I       ,.      f           K.+           _+% % =                   ",
"                    ~                 = #       # =       & r         {+    i       # J+m                     K+                ",
"                                      =           =       #         ]           # % j.0.'                     . +               ",
"                  # h               =             %               %             b 5 :+                        ^               # ",
"              # # %                 % %           %                         e j L+                                        # # % ",
"            :+% % E       >+{     %                 %                   - ; % % =                 & *                 X.% % % = ",
"                      # # %                                             '         )           # # %                   n         ",
"                  X.% % % =                                                                 ! % % =               >+#  .        ",
"                  :         m                                                                       {         / j.% % =         ",
"                                                                                                              :         T       ",
"                                                                                                                        -       "};
