/* XPM */
static char *dummy[]={
"64 64 284 2",
"#V c #090910",
"bo c #0a0a11",
".V c #0e0f15",
"aO c #101319",
"aN c #11131a",
".m c #13161c",
"aP c #14171d",
"a5 c #15181d",
".L c #1b1d21",
"aF c #1b1e22",
".h c #1b2028",
"b# c #1d2022",
"#b c #1e1f21",
"cy c #1f2021",
"#q c #1f242b",
".M c #212323",
"bp c #21252b",
"bg c #22262c",
"c# c #23272d",
"aY c #242b34",
"cg c #252727",
".o c #252c35",
"bw c #262a2f",
"a4 c #272e35",
"ba c #282e36",
"bt c #293037",
".H c #2b2e2e",
"cd c #2b2f32",
"cj c #2c2e2d",
"bz c #2c3033",
"aQ c #2d3030",
".l c #2d312b",
".7 c #2d3339",
"#2 c #2e302f",
"a# c #2e3030",
"av c #303332",
"at c #303539",
"bn c #30363b",
"bN c #30363c",
"aX c #303a43",
"al c #313332",
"bs c #313537",
"bl c #31363a",
"#1 c #313835",
"#l c #32383c",
".n c #323c45",
"bC c #343839",
"aD c #34393c",
"#O c #353836",
"aM c #353838",
"cf c #353933",
".g c #353e46",
"aj c #363d3e",
"#k c #363f47",
"#W c #373a3b",
".W c #373b3b",
"bQ c #373c40",
"au c #373d3c",
".1 c #383b38",
"a3 c #384046",
"#0 c #384146",
"#d c #393b37",
".i c #393d37",
"#P c #393d3d",
"#U c #393f41",
"aG c #393f42",
"bR c #394248",
".8 c #3a3c3a",
"ak c #3a3f3a",
".0 c #3a3f42",
"cn c #3b3d3a",
"bu c #3b3f3e",
"#9 c #3b4649",
"bV c #3c3f3f",
"ai c #3c403a",
"a. c #3e4644",
"c. c #3f413e",
"cm c #3f433c",
".y c #3f4341",
"b9 c #3f4342",
"#E c #404341",
"aV c #414440",
"aW c #414d54",
"aw c #424541",
"#D c #424543",
"cw c #434540",
"am c #434642",
"bZ c #434848",
"bW c #434a4e",
".z c #43525b",
"ci c #444841",
"#p c #454743",
"cc c #454844",
"cs c #464844",
".p c #464a45",
"aa c #464a47",
".A c #474a45",
"b8 c #474b48",
".U c #474c4b",
"b. c #484b45",
"#r c #484b46",
"#3 c #484c49",
"b6 c #494c47",
"aE c #494d49",
"bx c #4a4e4a",
"bY c #4b4f4b",
"aC c #4b5152",
".j c #4c4f49",
"bO c #4c504c",
"aU c #4c504e",
"#j c #4d504a",
".G c #4d504b",
"bH c #4d514d",
".f c #4d514f",
"b4 c #4e514b",
"br c #4e514c",
"cp c #4e524b",
".K c #4e5250",
"b2 c #4e5350",
"aH c #4e585a",
"ct c #4f524c",
"co c #4f524d",
".e c #4f534f",
"#X c #4f5350",
"bv c #50544f",
"cr c #51544e",
"bm c #51544f",
"#8 c #51554e",
"b1 c #52554f",
".I c #535650",
"bq c #535752",
"#T c #545850",
"ck c #545853",
"ca c #555853",
"by c #555954",
"bX c #555a58",
"as c #555b58",
"bb c #565a54",
"bT c #565b59",
"aI c #565c59",
"bS c #566061",
"aZ c #575a54",
"bJ c #575b55",
"bA c #576061",
".X c #585b54",
"bh c #585b55",
"a6 c #585c55",
"bk c #585c58",
".k c #586d76",
".q c #595d56",
"bP c #595d57",
"#N c #5a5e57",
"bM c #5a5e58",
"#Q c #5a5e59",
"bI c #5a6d75",
".9 c #5b5e57",
"aR c #5b5f58",
"bE c #5b5f59",
"b5 c #5b5f5a",
"#F c #5b5f5b",
"b0 c #5b615d",
"#. c #5c5f58",
"aT c #5c6059",
"bB c #5c605a",
"#s c #5c615e",
"a9 c #5c6463",
".2 c #5d6059",
"cv c #5d6159",
".x c #5d615a",
".T c #5d615b",
".J c #5d615c",
"#Y c #5e615a",
".Z c #5e625b",
".F c #5e625d",
"bf c #5e6664",
"ax c #5e6765",
"cx c #5f625a",
".d c #5f625b",
"#e c #5f635a",
".N c #5f635b",
"aJ c #5f635c",
"ay c #5f635e",
"ab c #5f6461",
"an c #5f6764",
"bD c #5f6f73",
"cu c #60635c",
"cz c #60645c",
"a1 c #60645d",
"aL c #60655f",
"#4 c #606662",
"#R c #61645c",
".6 c #61645d",
"#i c #61655d",
"aA c #61655e",
"#6 c #61655f",
".r c #62655e",
".B c #62665e",
"cl c #62665f",
"b7 c #626660",
"ah c #626661",
"cq c #63665e",
"ch c #63665f",
".3 c #63675f",
"be c #636760",
"aq c #646760",
"## c #646860",
"bd c #646861",
"az c #646962",
"#J c #646a66",
"a8 c #646b66",
"bG c #656860",
"aK c #656861",
"ad c #656960",
"ac c #656961",
"a7 c #656962",
"aB c #656963",
"ao c #656a63",
"bU c #666961",
"bj c #666962",
"#G c #666a61",
".4 c #666a62",
"b3 c #666b64",
"#7 c #666c66",
"bF c #676a62",
"#x c #676b62",
".C c #676b63",
"ce c #676b64",
"bi c #676c64",
"ar c #676c67",
"#t c #686b63",
"#a c #686c62",
"#w c #686c63",
".c c #686c64",
"a0 c #686c65",
"bc c #686d65",
"#S c #686d67",
"#m c #686e67",
"a2 c #68706d",
"#n c #696c64",
"#I c #696d64",
"#K c #696d65",
"aS c #696e66",
"cb c #6a6d65",
"ap c #6a6e65",
".t c #6a6e66",
".s c #6a6f68",
".E c #6b6e66",
"bL c #6b6f66",
".b c #6b6f67",
"#z c #6b6f68",
".O c #6b7067",
"#A c #6b716b",
"#y c #6b726c",
".S c #6c6f67",
".a c #6c7067",
".w c #6c7068",
"ae c #6c7069",
"af c #6c7168",
"#Z c #6c7169",
"#L c #6c716a",
"#g c #6c726b",
"ag c #6c726c",
".v c #6d7168",
".u c #6d7169",
"#B c #6d7269",
".D c #6d726b",
".P c #6d736b",
".# c #6e7269",
".R c #6e726a",
"#5 c #6e736a",
"bK c #6e736b",
"#M c #6f726a",
"Qt c #6f736a",
".Q c #70746b",
".Y c #71756b",
"#C c #72766c",
"#f c #73776d",
"#h c #73786d",
".5 c #74786d",
"#H c #75796f",
"#u c #767a6f",
"#o c #767b6f",
"#v c #777b70",
"#c c #868b7c",
"QtQtQtQtQtQtQt.#.a.b.c.d.e.f.g.h.i.j.j.kQtQtQtQtQtQtQtQtQtQtQtQtQtQtQtQtQtQtQtQtQtQt.j.j.i.l.m.n.o.h.h.p.q.r.s.t.uQtQtQtQtQtQt.b",
"QtQtQtQtQtQtQt.#.v.w.c.x.e.y.m.i.i.i.z.kQtQtQtQtQtQtQtQtQtQtQtQtQtQtQtQtQtQtQtQtQtQtQt.j.i.l.o.m.o.h.m.A.B.C.D.w.#QtQtQtQtQtQt.v",
"QtQtQtQtQtQtQt.#.v.v.E.F.G.H.z.m.i.i.z.k.jQtQtQtQtQtQtQtQtQtQtQtQtQtQtQtQtQtQtQtQtQtQt.j.i.h.n.n.m.m.m.I.c.c.D.#.#QtQtQtQtQtQt.#",
"QtQtQtQtQtQtQt.#.#.v.a.J.K.L.n.m.o.i.z.z.jQtQtQtQtQtQtQtQtQtQtQtQtQtQtQtQtQtQtQtQtQtQt.j.i.i.o.n.n.h.M.N.E.O.P.#QtQtQtQtQtQtQtQt",
"QtQtQt.w.QQt.R.R.#.#.S.T.U.V.n.z.m.o.z.zQtQtQtQtQtQtQtQtQtQtQtQtQtQtQtQtQtQtQtQtQtQtQt.j.i.i.h.n.o.h.W.X.Y.w.#.RQtQtQtQtQtQtQt.#",
".#QtQtQt.#.#.R.R.#.#.a.Z.0.V.o.n.o.h.z.nQtQt.jQtQtQtQtQtQtQtQtQtQtQtQtQtQtQtQtQtQtQtQt.j.j.i.h.o.h.V.1.2.3.4.#.RQtQtQtQtQtQtQt.#",
".#.5QtQt.uQtQtQtQt.#.v.6.7.h.V.o.h.m.z.n.j.jQtQtQtQtQtQtQtQtQtQtQtQtQtQtQtQtQtQtQtQt.j.j.i.i.h.o.V.m.8.9.r.w.#QtQtQtQtQtQtQt.s.#",
"#..s.Q.Q.vQtQtQtQtQt###a#b.m.V.h.m.m.n.o.jQtQt#c.jQtQtQtQtQtQtQtQtQtQtQtQtQtQtQtQt.j#cQt.z.j.m.h.V.m#d#e.x.v.RQtQtQt.4#fQtQt#g#h",
"#i.D.u.vQtQtQtQtQtQt.v#j#k.V.V.V.V.n.n.i.j#c#c.jQtQtQtQtQtQtQtQtQtQtQtQtQtQtQtQtQt#cQtQt.z.n.m.m.V.m#l.j.4.uQtQtQtQtQt.t#h#m#g#n",
".3.D.u.#.#.RQtQtQtQt#o#p.o.n.V.m.V.n.o.j.i.i.iQtQtQtQtQtQtQtQtQtQtQtQtQtQtQtQtQtQtQtQtQt.n.z.m.V.m.o#q#r#s#t#uQtQtQt#v#w#x#y#z.c",
"#A#B#B.#.#Qt.R.#.Q#C.2#D.V.o.n.V.m.n.o.j#cQtQt.i#cQtQtQtQtQtQtQtQtQtQtQtQtQtQtQtQtQtQtQtQt.z.o.m.o.h.V#E#F.4#G.4#u#H#I.C#J#y#K.C",
"#L#B.#.#.##M.R.#.##K#N#O.V.h.o.o.h.o.h#cQtQtQtQt.jQtQtQtQtQtQtQtQtQtQtQtQtQtQtQtQtQtQtQtQt.z.o.m.h.m.V#P#Q#R#G.4.c.t.a.t#S#y#K.3",
"#L.#.#.#.#.R.#.#.u.c#T#U#V.V.o.n.h.o.hQtQtQtQtQt.jQtQtQtQtQtQtQtQtQtQtQtQtQtQtQt.jQtQtQtQt.n.n.m.h.m.V#W#X#Y.B#w.s.a.w#Z.D#Z.t#i",
".w.#.#.#.#.R.#.v.D.4#T#0#1#V.h.o.m.o.hQtQtQtQtQtQtQtQtQtQtQtQtQtQtQtQtQtQtQtQtQt.j#cQtQtQt.o.n.o.m.m.o#2#3#4.B#I.D.w.v.u#5.v.b#6",
".v.#.#.#.#.R.#.v.D#7#8#9a.#V.m.h.m.h.h.jQtQtQtQtQtQtQtQtQtQtQtQtQtQtQtQtQtQtQtQtQt.j#cQtQtQt.o.o.m.h.oa#aaabacad#gae.v.##5#B.Eac",
".u.#.#.#.##5.#afagahaiajak#V.z.m.m.h.i.j#cQtQtQtQt#c.jQtQtQtQtQtQtQtQtQtQtQtQt.j.j.j.j.iQt.j.o.h.h.o.nalaman.3aoag.w.v.#.#.uapaq",
"af.u.#.#.##5.v.barasatau#V.z.z.V.m.h.i.i.j#c#cQt.j.jQtQtQtQtQtQtQtQtQtQtQtQt.j#c#c#cQt.j.i.i.j.m.h.n.oavawaxayaz.s.u.#.#.#.##KaA",
".v.v.#.##B.u.u#KaBaCaDaE#V.z.z.V.m.i.i.z.i.i.i.i.i.j.jQtQtQtQtQtQtQtQtQtQtQtQtQtQtQtQt#c.j.i.i.l.o.z.haFaGaHaIaA.b.v.#.#.#.##IaJ",
".w.v.#.#.u.u.baKaL.UaM.n#V.n.z.V.m.l.i.k.i.j#cQtQt#c#c.jQtQtQtQtQtQtQtQtQtQtQtQtQtQtQt#c.j.i.i.l.z.n.haNaOaPaQaRaS.w.#.#.R.##K.6",
".w.#.#.#.u.u.b.6aTaU.h.n#V.n.z.V.m.l.i.k.jQtQtQtQtQtQt#c.jQtQtQtQtQtQtQtQtQtQtQtQtQtQt.j.j.i.l.n.n.o#VaVaWaXaYaZa0.t.u.#.#.#.a.c",
".t.v.#.#.#.u.aa1a2.G.h.n#V.n.n.z.V.l.z.kQtQtQtQtQtQtQtQtQtQtQtQtQtQtQtQtQtQtQtQtQt.j.j.j.j.i.l.n.n.h#V.za3a4a5a6a0#K.w.#.u.u.aa0",
"a7.b.#Qt.#.#.a#ia8a9b..n.n#V.o.n.o.h.z.nQtQt.jQtQtQtQtQtQtQtQtQtQtQtQtQtQtQtQtQtQtQtQt.j.j.i.h.o.i.m#V.o.ob#babbbc#K.w.#.u.u.aa0",
"bd.#QtQtQtQt.bbe.dbf.z.m.n.m#V.o.h.m.z.n.j.jQtQtQtQtQtQtQtQtQtQtQtQtQtQtQtQtQtQtQtQt.j.j.i.i.h.o.m#V.o.h.m.nbgbhbi#K.u.#.#.v.aa0",
"#K.RQtQtQt.#.abj.dbk.g#V#V.m#V.h.m.m.n.o.jQtQt#c.jQtQtQtQtQtQtQtQtQtQtQtQtQtQtQtQt.j#cQt.z.j.m.h#V.o#V.m.hbl.h#Nbi.t.#.R.R.#.w.c",
".bQtQtQt.#Qt.v.4aJbmbn#V.n#V.m#V.V.n.n.i.j#c#c.jQtQtQtQtQtQtQtQtQtQtQtQtQtQtQtQtQt#cQtQt.z.n.m.m.V#V.obo.h.obp.d.C.a.RQt.R.#.v.C",
".wQtQtQtQt.u.v.4bqbrbs#V.o.n#V.m#V.n.o.j.i.i.iQtQtQtQtQtQtQtQtQtQtQtQtQtQtQtQtQtQtQtQtQt.n.z.m.V.m.o.h#V.hbtbu#i#I.#QtQtQt.R.u.C",
".#.#QtQtQtQt.E#KaZbval.h#V.o.n#V.m.n.o.j#cQtQt.i#cQtQtQtQtQtQtQtQtQtQtQtQtQtQtQtQtQtQtQtQt.z.o.m.o.h#V.m.hbwbxaJ.t.#QtQtQtQt.##K",
".#QtQtQtQtQt.R.a##bybz.m#V.h.o.o.h.o.h#cQtQtQtQt.jQtQtQtQtQtQtQtQtQtQtQtQtQtQtQtQtQtQtQtQt.z.o.m.h.m#V.m.mbpbAbB.t.#QtQtQtQtQt.b",
"QtQtQtQtQtQt#5.v##bBbC.m.h#V.o.n.h.o.hQtQtQtQtQt.jQtQtQtQtQtQtQtQtQtQtQtQtQtQtQt.jQtQtQtQt.n.n.m.h.m#V.V.m.hbDbEbF.#QtQtQtQtQt.v",
"QtQtQtQtQtQtQt.abGaJbHbt.m#V.h.o.m.o.hQtQtQtQtQtQtQtQtQtQtQtQtQtQtQtQtQtQtQtQtQt.j#cQtQtQt.o.n.o.m.m.o#V.m.mbIbJ#t.#QtQtQtQtQt.#",
"QtQtQtQtQtQtbKbL.C.rbMbN.o.m#V.h.m.h.h.jQtQtQtQtQtQtQtQtQtQtQtQtQtQtQtQtQtQtQtQtQt.j#cQtQtQt.o.o.m.h.o#V.m.nbIbO.4.#QtQtQtQtQtQt",
"QtQtQtQtQtQt.#.w#t.4bPbQ.o#V.z.m.m.h.i.j#cQtQtQtQt#c.jQtQtQtQtQtQtQtQtQtQtQtQt.j.j.j.j.iQt.j.o.h.h.o.n#V.mbRbSbTbU.#QtQtQtQtQt.#",
".#QtQtQtQtQt.#.wap.4bBbV#V.z.z.V.m.h.i.i.j#c#cQt.j.jQtQtQtQtQtQtQtQtQtQtQtQt.j#c#c#cQt.j.i.i.j.m.h.n.o#V.hbWbX.J.aQtQtQtQtQtQt.#",
".vQtQtQtQtQt.R.u.vapbdbY#V.z.z.V.m.i.i.z.i.i.i.i.i.j.jQtQtQtQtQtQtQtQtQtQtQtQtQtQtQtQt#c.j.i.i.l.o.z.h#V.hbZb0a0.uQtQtQtQtQtQt.#",
".vQtQtQtQtQtQt.R.#.aaqb1#V.n.z.V.m.l.i.k.i.j#cQtQt#c#c.jQtQtQtQtQtQtQtQtQtQtQtQtQtQtQt#c.j.i.i.l.z.n.h#V.hb2b3.w.#QtQtQtQtQtQt.#",
".wQtQtQtQtQtQtQtQt.vacb4#V.n.z.V.m.l.i.k.jQtQtQtQtQtQt#c.jQtQtQtQtQtQtQtQtQtQtQtQtQtQt.j.j.i.l.n.n.o#V.V.hb5#K.uQtQtQtQtQtQtQt.#",
".wQtQtQtQtQtQtQtQt.#bFb6#V.n.n.z.V.l.z.kQtQtQtQtQtQtQtQtQtQtQtQtQtQtQtQtQtQtQtQtQt.j.j.j.j.i.l.n.n.h#V.Vbgb7#K.vQtQtQtQtQtQtQt.#",
".wQtQtQtQtQtQtQtQt.#bUb8.V.o.n.V.m.n.o.j#cQtQt.i#cQtQtQtQtQtQtQtQtQtQtQtQtQtQtQtQtQtQtQtQt.z.o.m.o.h.V.hb9a7.c.t.#QtQtQtQtQtQt.#",
".wQtQtQtQtQtQtQtQtQtbGc..V.h.o.o.h.o.h#cQtQtQtQt.jQtQtQtQtQtQtQtQtQtQtQtQtQtQtQtQtQtQtQtQt.z.o.m.h.m.Vc#caaA.ccb.#QtQtQtQtQt.#.v",
".b.#QtQtQtQtQtQtQt.##wcc#V.V.o.n.h.o.hQtQtQtQtQt.jQtQtQtQtQtQtQtQtQtQtQtQtQtQtQt.jQtQtQtQt.n.n.m.h.m.VcdbMaAce#K.vQtQtQtQtQt.u.w",
"ap.#QtQtQtQtQtQtQt.##Kb1cf#V.h.o.m.o.hQtQtQtQtQtQtQtQtQtQtQtQtQtQtQtQtQtQtQtQtQt.j#cQtQtQt.o.n.o.m.m.ocgbMchbi#I.#QtQtQtQt.#.v.c",
".E.#.#QtQtQtQtQtQt.#bL.Xci#V.m.h.m.h.h.jQtQtQtQtQtQtQtQtQtQtQtQtQtQtQtQtQtQtQtQtQt.j#cQtQtQt.o.o.m.h.ocjckclbi.t.#.#QtQtQt.#bLbU",
".a.#.#QtQtQtQtQtQt.##K.Xcm#V.z.m.m.h.i.j#cQtQtQtQt#c.jQtQtQtQtQtQtQtQtQtQtQtQt.j.j.j.j.iQt.j.o.h.h.o.ncncobE.3.S.#.#QtQt.#.v#K##",
".a.#QtQtQtQtQtQtQt.##tcp#V.z.z.V.m.h.i.i.j#c#cQt.j.jQtQtQtQtQtQtQtQtQtQtQtQt.j#c#c#cQt.j.i.i.j.m.h.n.o#pbrbEa7.v.#.#.#.#.#.w.Ccq",
".a.vQtQtQtQtQtQt.#.v#tcr#V.z.z.V.m.i.i.z.i.i.i.i.i.j.jQtQtQtQtQtQtQtQtQtQtQtQtQtQtQtQt#c.j.i.i.l.o.z.hcsctcu.t.v.#.#.#.#.u.a.3cv",
".a.#QtQtQtQtQt.#.v.v.3Qt#V.n.z.V.m.l.i.k.i.j#cQtQt#c#c.jQtQtQtQtQtQtQtQtQtQtQtQtQtQtQt#c.j.i.i.l.z.n.hcwb1.4.E.v.#Qt.#QtQtbLaccx",
"QtQtQtQtQtQtQt.#.ubLQtQt#V.n.z.V.m.l.i.k.jQtQtQtQtQtQt#c.jQtQtQtQtQtQtQtQtQtQtQtQtQtQt.j.j.i.l.n.n.o#V.X#i.c.t.vQt.#QtQtQtQtQtQt",
"QtQtQtQtQtQtQt.#.u#wQtQt#V.n.n.z.V.l.z.kQtQtQtQtQtQtQtQtQtQtQtQtQtQtQtQtQtQtQtQtQt.j.j.j.j.i.l.n.n.h#VQt#I#I.b.uQt.uQtQtQtQtQtQt",
"QtQtQtQtQtQtQt.#QtQtcrQtQt#V.o.n.o.h.z.nQtQt.jQtQtQtQtQtQtQtQtQtQtQtQtQtQtQtQtQtQtQtQt.j.j.i.h.o.i.m#VQtQt.t.a.uQtQtbLQtQtQtQtQt",
"QtQtQtQtQtQtQtQtQtQtQtQtQtQt#V.o.h.m.z.n.j.jQtQtQtQtQtQtQtQtQtQtQtQtQtQtQtQtQtQtQtQt.j.j.i.i.h.o.m#VQtQtQtQt#KQtQtQtQtbL#I.4QtQt",
"QtQtQtQtQt.vQtQtQtQtQt#V#VQt#V.h.m.m.n.o.jQtQt#c.jQtQtQtQtQtQtQtQtQtQtQtQtQtQtQtQt.j#cQt.z.j.m.h#VQt#VQtQtcqQtQtQtQtQt#tQtQtQtQt",
"QtQtQt.vbLQtQtQtQtQtQt#V.n#VQt#V.V.n.n.i.j#c#c.jQtQtQtQtQtQtQtQtQtQtQtQtQtQtQtQtQt#cQtQt.z.n.m.m.V#V.ocyQtQtQtQtQtQtQt.BQtQtQtQt",
"QtQtQtQtQt.4QtQtQtQtQt#V.o.n#VQt#V.n.o.j.i.i.iQtQtQtQtQtQtQtQtQtQtQtQtQtQtQtQtQtQtQtQtQt.n.z.m.V.m.o.h#VQtQtQtQtQtQt.NQtQtQtQtQt",
"QtQtQtQtQtQtczQtQtQtQtQt#V.o.n#V.m.n.o.j#cQtQt.i#cQtQtQtQtQtQtQtQtQtQtQtQtQtQtQtQtQtQtQtQt.z.o.m.o.h#VQtQtQtQtQtQtQtQtQtQtQtQtQt",
"QtQtQtQtQtQtQtQtQtQtQtQt#V.h.o.o.h.o.h#cQtQtQtQt.jQtQtQtQtQtQtQtQtQtQtQtQtQtQtQtQtQtQtQtQt.z.o.m.h.m#VQtQtQtQtQtQtQtQtQtQtQtQtQt",
"QtQtQtQtQtQtQtQtQtQtQtQtQt#V.o.n.h.o.hQtQtQtQtQt.jQtQtQtQtQtQtQtQtQtQtQtQtQtQtQt.jQtQtQtQt.n.n.m.h.m#VQtQtQtQtQtQtQtQtQtQtQtQtQt",
"QtQtQtQtQtQtQtQtQtQtQtQtQt#V.h.o.m.o.hQtQtQtQtQtQtQtQtQtQtQtQtQtQtQtQtQtQtQtQtQt.j#cQtQtQt.o.n.o.m.m.o#VQtQtQtQtQtQtQtQtQtQtQtQt",
"QtQtQtQtQtQtQtQtQtQtQtQtQtQt#V.h.m.h.h.jQtQtQtQtQtQtQtQtQtQtQtQtQtQtQtQtQtQtQtQtQt.j#cQtQtQt.o.o.m.h.o#VQtQtQtQtQtQtQtQtQtQtQtQt",
"QtQtQtQtQtQtQtQtQtQtQtQtQt#V.z.m.m.h.i.j#cQtQtQtQt#c.jQtQtQtQtQtQtQtQtQtQtQtQt.j.j.j.j.iQt.j.o.h.h.o.n#VQtQtQtQtQtQtQtQtQtQtQtQt",
"QtQtQtQtQtQtQtQtQtQtQtQt#V.z.z.V.m.h.i.i.j#c#cQt.j.jQtQtQtQtQtQtQtQtQtQtQtQt.j#c#c#cQt.j.i.i.j.m.h.n.o#VQtQtQtQtQtQtQtQtQtQtQtQt",
"QtQtQtQtQtQtQtQtQtQtQtQt#V.z.z.V.m.i.i.z.i.i.i.i.i.j.jQtQtQtQtQtQtQtQtQtQtQtQtQtQtQtQt#c.j.i.i.l.o.z.h#VQtQtQtQtQtQtQtQtQtQtQtQt",
"QtQtQtQtQtQtQtQtQtQtQtQt#V.n.z.V.m.l.i.k.i.j#cQtQt#c#c.jQtQtQtQtQtQtQtQtQtQtQtQtQtQtQt#c.j.i.i.l.z.n.h#VQtQtQtQtQtQtQtQtQtQtQtQt",
"QtQtQtQtQtQtQtQtQtQtQtQt#V.n.z.V.m.l.i.k.jQtQtQtQtQtQt#c.jQtQtQtQtQtQtQtQtQtQtQtQtQtQt.j.j.i.l.n.n.o#VQtQtQtQtQtQtQtQtQtQtQtQtQt",
"QtQtQtQtQtQtQtQtQtQtQtQt#V.n.n.z.V.l.z.kQtQtQtQtQtQtQtQtQtQtQtQtQtQtQtQtQtQtQtQtQt.j.j.j.j.i.l.n.n.h#VQtQtQtQtQtQtQtQtQtQtQtQtQt"};
