/* XPM */
static char * lowwalls_xpm[] = {
"64 64 191 2",
"  	c #6F736A",
". 	c #5C5F58",
"+ 	c #83887A",
"@ 	c #4C4F49",
"# 	c #393D37",
"$ 	c #6A6E66",
"% 	c #5B5F57",
"& 	c #4E514B",
"* 	c #090910",
"= 	c #545750",
"- 	c #868B7C",
"; 	c #333C43",
"> 	c #7A7F71",
", 	c #565B59",
"' 	c #6C7067",
") 	c #777C70",
"! 	c #6E7269",
"~ 	c #767A70",
"{ 	c #63665E",
"] 	c #616865",
"^ 	c #666961",
"/ 	c #4C4F48",
"( 	c #3D403A",
"_ 	c #0E0F15",
": 	c #2D312B",
"< 	c #686C64",
"[ 	c #51544E",
"} 	c #5F625B",
"| 	c #3E423C",
"1 	c #808577",
"2 	c #5E635E",
"3 	c #6E7169",
"4 	c #4F524C",
"5 	c #60645C",
"6 	c #434741",
"7 	c #3A3E38",
"8 	c #13161C",
"9 	c #828779",
"0 	c #6A6E65",
"a 	c #757A6F",
"b 	c #4D504A",
"c 	c #484C45",
"d 	c #73776D",
"e 	c #545851",
"f 	c #42463F",
"g 	c #444B4E",
"h 	c #656961",
"i 	c #6D7168",
"j 	c #63675E",
"k 	c #5A5D56",
"l 	c #1F2121",
"m 	c #0D0D12",
"n 	c #61645D",
"o 	c #6B6E66",
"p 	c #666A61",
"q 	c #6A6E67",
"r 	c #72776B",
"s 	c #5E6159",
"t 	c #1C1C1E",
"u 	c #18191B",
"v 	c #101116",
"w 	c #52554F",
"x 	c #5D6563",
"y 	c #686E67",
"z 	c #6D7269",
"A 	c #7E8376",
"B 	c #121316",
"C 	c #1B2028",
"D 	c #555952",
"E 	c #5F635B",
"F 	c #535650",
"G 	c #6B6F67",
"H 	c #71756B",
"I 	c #43525B",
"J 	c #595E5B",
"K 	c #70746B",
"L 	c #54574F",
"M 	c #74796E",
"N 	c #565953",
"O 	c #474E50",
"P 	c #6D7169",
"Q 	c #252C35",
"R 	c #5E625A",
"S 	c #363F46",
"T 	c #61655C",
"U 	c #72766C",
"V 	c #0E0F14",
"W 	c #4D5049",
"X 	c #575B54",
"Y 	c #60635C",
"Z 	c #797D72",
"` 	c #3B4349",
" .	c #656860",
"..	c #0D0D13",
"+.	c #6B6F66",
"@.	c #7F8477",
"#.	c #7D8275",
"$.	c #7F8376",
"%.	c #585C55",
"&.	c #858A7B",
"*.	c #0F1015",
"=.	c #7A7E73",
"-.	c #444842",
";.	c #686C63",
">.	c #1D1F1F",
",.	c #50534D",
"'.	c #696D64",
").	c #545751",
"!.	c #7C8174",
"~.	c #18181A",
"{.	c #4F524B",
"].	c #5F625A",
"^.	c #7B8074",
"/.	c #787D71",
"(.	c #63675F",
"_.	c #555851",
":.	c #121216",
"<.	c #50534C",
"[.	c #5A5E55",
"}.	c #75796E",
"|.	c #151518",
"1.	c #323C45",
"2.	c #7F8476",
"3.	c #52554E",
"4.	c #666A62",
"5.	c #676A62",
"6.	c #50544D",
"7.	c #4F534C",
"8.	c #474A44",
"9.	c #4D5148",
"0.	c #0B0B11",
"a.	c #586D76",
"b.	c #262925",
"c.	c #3B3F39",
"d.	c #626F71",
"e.	c #5C6058",
"f.	c #5E6F73",
"g.	c #545E60",
"h.	c #84897A",
"i.	c #646A66",
"j.	c #485052",
"k.	c #767B70",
"l.	c #545850",
"m.	c #272D33",
"n.	c #3B413E",
"o.	c #5D6159",
"p.	c #242726",
"q.	c #2E3330",
"r.	c #2B3134",
"s.	c #252C33",
"t.	c #29313A",
"u.	c #303A42",
"v.	c #303B43",
"w.	c #414E55",
"x.	c #333B3B",
"y.	c #222831",
"z.	c #313B44",
"A.	c #242B34",
"B.	c #404F58",
"C.	c #1A1E25",
"D.	c #414F57",
"E.	c #2F3841",
"F.	c #2D363E",
"G.	c #272F38",
"H.	c #303A43",
"I.	c #354149",
"J.	c #232A31",
"K.	c #506269",
"L.	c #2E322E",
"M.	c #37434B",
"N.	c #51646C",
"O.	c #30383C",
"P.	c #48585D",
"Q.	c #1A1F25",
"R.	c #282C2B",
"S.	c #2F3942",
"T.	c #21272F",
"U.	c #282F38",
"V.	c #212830",
"W.	c #343F48",
"X.	c #556972",
"Y.	c #30393E",
"Z.	c #4C5D63",
"`.	c #1B2026",
" +	c #1C2129",
".+	c #52666F",
"++	c #3D4B53",
"@+	c #3B4241",
"#+	c #53666E",
"$+	c #363E3D",
"%+	c #3A3F3B",
"                        . + @ @ @ @ #         $ % & @ @ @ @ @     @ # * * # # @           =           # - ; >   , '     ) !     ",
"          ~ {             ] - -   - @       ^ / ( # # # # @ @ @ @ # * _ _ * : # @         =         # -   ; <       - - &       ",
"      - - [ }           | 1 2 3   - 4     5 6 7 * * * : # # @ @ # * _ 8 _ _ * : # @       9 @ @ @ @ #     0     a b @ 4 c       ",
"  d e b @ f }         # -   g h i   j   k l m * _ _ _ * : # # # # * _ 8 8 _ _ * * * *       - -   - @     n     o               ",
"  !   p q ! r 4 @ @ @ #         i   s t u v _ _ _ _ _ _ * : : * * _ 8 8 8 8 _ _ _ _ _ *           - @     ^                     ",
"      w x y z A -   - @             B v _ 8 _ _ 8 _ 8 _ * : * _ 8 _ 8 C 8 8 8 _ 8 _ _ _ *   D E     F G   H !       {           ",
"      @ I J $       - @       K L * _ _ 8 8 _ 8 8 _ C 8 _ * _ 8 8 _ 8 C C 8 8 _ 8 8 _ _ _ *     D   M N +           }           ",
"        I O h !       }     ' < P * _ 8 8 _ _ 8 8 8 Q C 8 _ _ 8 8 8 _ C 8 8 8 8 _ 8 8 _ _ *   @   @   ~ R 9         }         # ",
"      # - S T i       - @     U V _ 8 8 C _ 8 8 8 8 _ Q C _ _ 8 8 8 8 C 8 8 C 8 8 _ 8 8 _ _ *   @ @ W X   Y         Z 4 b & & ( ",
"    # -   `  .i   - - @         .._ C C _ _ 8 C 8 8 _ 8 Q _ 8 8 8 8 8 8 8 8 C 8 8 _ _ 8 8 _ * -   @       +.@.        #.9   $.%.",
"@ @ #         &.@ @ @ #     + a *.C _ _ _ _ 8 C 8 8 C 8 Q _ 8 8 8 C 8 _ 8 8 C C 8 8 _ C 8 _ _ *   #         =.  - -         H o ",
"  - @         @         -.;.N >.8 _ _ _ _ 8 8 C 8 8 Q C _ _ 8 8 8 C C 8 8 C C C 8 8 8 C C _ _ _ * # @     ,.'.).@ 4 A           ",
"  - @                   !.R   ~._ _ _ _ _ 8 8 C 8 8 Q C _ 8 8 C C C C 8 _ C Q C C 8 8 8 C _ _ _ _ * - @ @     K     {.          ",
"    ].                  ^.!   m _ _ _ 8 _ 8 8 Q C 8 Q C _ 8 8 C C C C 8 _ C Q C C 8 8 8 _ 8 8 _ _ _ *     @         @           ",
"    U 3     < /.      i (._.:._ _ _ 8 8 _ 8 C Q C 8 Q Q _ 8 8 C C C C C 8 8 C Q C C 8 _ _ _ _ 8 8 _ _ *   @ @       &         # ",
"          <.[.@     (.}.U |._ _ _ _ 8 8 _ 8 C Q Q 8 1.Q 8 _ 8 C C C C C 8 _ C Q Q C 8 _ 8 _ 8 _ * * * _ * @ @ @     2.@ @ @ @ # ",
"        @ # # # [ [   !   * _ C _ _ 8 C _ 8 C Q Q 8 1.Q 8 _ 8 C C Q C C 8 8 8 1.Q C 8 _ 8 8 8 8 _ *   * @ # # # W 3.  - -   - @ ",
"  @ @ @ # * * * # @     * _ 8 * _ 8 8 C _ 8 C Q Q C 1.1.8 _ 8 C C Q C C 8 C 8 1.1.Q C 8 8 8 C 8 8 _ * @ # * * * # &         - @ ",
"@ # # # * 8 8 _ * @ @     * * _ 8 8 C C 8 8 C Q 1.C I C C 8 8 C C Q Q C 8 Q 8 Q 1.Q C 8 8 _ C C 8 8 * # * 8 8 _ * @ &     4.5.6.",
"# * * : * 8 C 8 * # @ @ @ @ * _ 8 8 C 8 8 _ C Q 1.C I 8 C 8 C C Q Q Q C C Q C 8 I 1.Q 8 C _ 8 C C 8 8 * _ 8 C 8 * # @ b 7.= 8.9.",
"* _ _ * 8 C C 8 _ * # # @ # * 8 8 C C 8 8 _ C Q 1.C 8 _ C 8 C C Q Q Q C Q Q C 8 1.I 1.8 C 8 8 C C 8 8 _ 8 C C 8 _ * # # @ # # 0.",
"8 _ _ 8 8 C C C 8 * : # # # * 8 8 C 8 _ 8 8 _ 1.I 8 _ 8 8 _ C C Q Q Q C Q 1.Q C C I I 8 C 8 _ C C C 8 _ 8 C C C 8 * : # # # * _ ",
"8 _ _ 8 C C Q C 8 * : : # * _ 8 C Q 8 _ 8 C 8 1.I 8 C 8 C _ C C Q 1.Q C C 1.Q C 8 1.I Q C C _ 8 Q C 8 8 _ C Q C 8 * : : # * _ 8 ",
"8 8 _ 8 C C Q C 8 _ * * : * 8 8 C Q 8 8 C 8 8 I a.8 C 8 C 8 C C Q 1.Q C C 1.I C 8 Q 1.C C C 8 8 Q Q C 8 _ C Q C 8 _ * * : * _ 8 ",
"8 8 _ C C C Q C 8 _ _ 8 * _ 8 C Q C _ 8 C 8 _ I a.8 C 8 Q C 8 C Q 1.C C 8 C I Q C C Q C Q C 8 8 C Q C 8 _ C Q C 8 _ _ 8 * _ _ 8 ",
"C 8 _ C C C Q C C _ 8 8 _ 8 C 8 Q 8 _ C C _ 8 8 I C C 8 1.C 8 Q Q 1.C Q C C I 1.C 8 C 8 Q C C 8 8 Q Q C _ C Q C C _ 8 8 8 _ 8 8 ",
"C 8 _ C C Q Q C C _ 8 C _ C 8 C C 8 8 C 8 8 C 8 8 C Q Q 8 1.C Q 1.I C Q C 8 C I C 8 8 C Q C C 8 8 _ Q Q _ Q Q C C _ 8 C 8 _ 8 8 ",
"C 8 _ _ C Q Q Q C _ 8 _ C _ C C C 8 8 C _ C C C 8 C Q Q 8 I C Q 1.I C Q C C 8 C C C 8 C Q Q C C 8 8 _ Q _ Q Q Q C _ 8 C C 8 8 8 ",
"C 8 _ _ C Q Q Q C _ 8 C _ 8 C Q C 8 C C _ C Q C 8 C Q 1.Q a.C Q I I C Q Q C C C C Q C C Q Q C C 8 8 _ Q _ Q Q Q C _ 8 C C 8 _ 8 ",
"C 8 _ _ C Q 1.Q C 8 8 C _ C Q Q C 8 C Q 8 C Q C C C Q 1.Q b.C Q I 1.Q 1.Q C C Q C Q C 8 C Q Q C 8 8 _ _ C Q 1.Q C 8 8 C C 8 _ 8 ",
"C 8 8 _ C Q 1.Q 8 8 C C _ C Q 1.C 8 C Q C Q 1.C C Q Q 1.Q b.b.Q I b.Q 1.Q C Q Q C Q Q C C Q Q C 8 8 _ _ C Q 1.Q 8 8 C C Q C _ 8 ",
"C C 8 _ C 1.1.Q 8 8 C C _ Q Q 1.C 8 C Q C 1.Q Q C Q 1.1.1.b.b.Q I : Q 1.Q C 1.1.C Q Q C C Q 1.Q C 8 8 _ C 1.1.Q 8 8 C C Q C 8 8 ",
"C C 8 _ 8 1.I 1._ 8 C _ C Q 1.C 8 C C Q C 1.Q Q C Q 1.1.1.: b.Q 1.: 1.I Q C 1.8 C Q 1.Q C C 1.Q C 8 8 _ 8 1.I 1._ 8 C Q Q C 8 C ",
"C C 8 _ 8 1.a.C _ 8 C _ C Q 1.C 8 C Q Q 1.1.Q Q b.Q 1.1.b.: : Q Q : 1.I 1.b.C b.Q Q 1.Q C C 1.Q C 8 8 8 _ 1.a.C _ 8 C Q Q C 8 C ",
"C C 8 _ 8 8 a.C _ C C _ Q 1.1.C C C Q Q 1.1.Q b.: Q 1.I : : : Q : : : I : : b.b.Q 1.1.Q 8 C Q 1.Q 8 C 8 _ 8 a.C _ C C Q Q Q 8 C ",
"Q C 8 _ 8 C a.C 8 C C 8 Q 1.C 8 C C Q Q 1.1.Q b.: 1.1.I : # : Q # # : I : : : b.Q I 1.Q 8 C C 1.Q C C C _ C a.C 8 C C Q 1.Q 8 C ",
"Q C C 8 8 C I C 8 C C 8 Q 1.C 8 C C Q Q 1.I Q b.: 1.I I : # # Q # # # : : : : : 1.I 1.Q 8 8 C 1.1.C 8 C 8 C I C 8 C C Q 1.Q 8 C ",
"Q C C 8 C C C C 8 C C 8 Q 1.C C 1.C Q 1.1.I 1.: : 1.I I c.6.# @ @ @ # # # : : : 1.I 1.b.b.8 C Q I Q 8 8 C C C C 8 C C Q 1.Q 8 C ",
"Q Q C 8 C Q C 8 C C Q 8 Q Q C C 1.Q Q 1.I I 1.: : 1.I d.  i e.@ @ @ @ # : # # : I I I b.b.8 8 Q I Q C 8 C Q C 8 C C Q Q 1.Q 8 C ",
"Q Q C 8 C Q C 8 C C Q Q C Q C Q 1.Q Q 1.I I I : # =         i e.@ @ @ @ : # # # I I I : b.8 C 8 1.1.C 8 C Q C 8 C C Q Q 1.Q C C ",
"Q Q C 8 C Q C 8 Q C Q 1.1.Q C Q 1.Q Q 1.I f.g.8.              H   h.- @ # @ @ # # I : : b.C C C Q I Q C 8 Q C 8 Q C Q 1.1.Q C C ",
"Q Q C 8 Q 1.C 8 Q C Q 1.1.C C 1.1.b.Q I i.  @ @                       h.@ # @ @ @ I # : b.C C C Q 1.Q C C 1.C 8 Q C Q 1.1.Q C Q ",
"Q Q C 8 Q 1.Q 8 1.C Q 1.1.C Q 1.1.b.Q j.  @ @ @ @                       k.l.6.  @ 1.# # : C Q C Q Q 1.Q C 1.Q 8 1.C Q 1.1.1.C Q ",
"1.Q C 8 Q 1.Q 8 1.C C 1.1.Q Q 1.1.b.m.n.@ @       @                       '       o.@ # : C Q C 1.Q 1.Q C 1.Q 8 1.C C 1.1.1.C Q ",
"1.Q C C 1.1.Q 8 1.Q C 1.1.Q 1.1.b.p.q.: @                                             @ : C Q Q 1.Q C 1.C 1.Q 8 1.Q C 1.1.1.C Q ",
"1.Q C C 1.I 1.8 1.Q C 1.I Q 1.1.r.s.C : @                                             E : C 1.Q 1.Q C C 1.I 1.8 1.Q C 1.I 1.C t.",
"1.Q C C 1.I 1.Q 1.1.Q 1.I Q u.v.1.C : # @                                             4 w.x.Q 1.1.Q C C 1.I 1.Q 1.1.Q 1.I 1.y.z.",
"t.A.Q C 8 a.1.1.I 1.Q 1.B.C.C Q 1.: # # @                                             @ I D.E.F.1.Q Q C C a.1.1.I 1.Q 1.v.G.Q 1.",
"Q C H.I.J.K.L.M.N.O.P.Q.C Q Q I 1.1.: @ -                                             @ I 1.: R.S.T.U.V.C a.: W.X.Y.Z.`. +Q Q I ",
"Q C 1.a.I # I a.: # I C C Q Q I I : #                                     @             I 1.# b.Q  +H..+++@+w.#+$+%+I C C Q Q I ",
"Q C 1.a.I # # a.# # I C C Q 1.I I # @ -                                   @           # - 1.# b.Q C 1.a.I # # a.# # I C C Q 1.I ",
": Q I a.I # @ I @ # : Q C Q I a.: # # -                                   @         # -   1.@ # : Q I a.I # @ I @ # : Q C Q I a.",
"# Q a.I # @ @ @ @ @ # Q C Q I a.: @   #         @                         - @ @ @ @ #         @ # Q a.I # @ @ @ @ @ # Q C Q I a.",
"@ Q a.I @ @ - - @ @ @ 1.# 1.I a.# -     # @ @ @ -                           - -   - @         @ @ Q a.I @ @ - - @ @ @ 1.# 1.I a.",
"@ I a.@ @ -       - @ I @ 1.a.# @       @ - -                                     - @         - @ I a.@ @ -       - @ I @ 1.a.# ",
"@ a.I - @               # @ a.@ -     @ -                                           @           @ a.I - @               # @ a.@ ",
"- a.    - @           # - - I @                                                     - @         - a.    - @           # - - I @ ",
"  I                   @     -                                                         - @         I                   @     -   ",
"                    @ @                                                                                             @ @         ",
"                      - @                                                                                             - @       ",
"                                                                                                                                ",
"                                                                                                                                ",
"                                                                                                                                ",
"                                                                                                                                "};
