/* XPM */
static char *dummy[]={
"64 64 28 1",
". c None",
"w c #28293f",
"b c #212c36",
"j c #2b3d48",
"h c #364f5b",
"d c #426771",
"n c #4a3121",
"t c #4a3f2c",
"e c #4d8487",
"g c #57a9a1",
"# c #6a1c13",
"m c #6d5b33",
"o c #7f603f",
"i c #903d2d",
"u c #918568",
"p c #9d814c",
"f c #a6543b",
"x c #a99f79",
"r c #b19c55",
"v c #c3bd8f",
"c c #c67648",
"s c #ccc060",
"y c #d8d698",
"a c #e79a56",
"q c #efeee0",
"z c #f2f3c7",
"k c #f8dd8a",
"l c #fbfaef",
"................................................................",
"................................................................",
"................................................................",
"................................................................",
"................................................................",
"................................................................",
"................................................................",
"................................................................",
"................................................................",
"................................................................",
"................................................................",
"................................................................",
"...............................#................................",
"..............................#a#...............................",
"............................b#cac#b.............................",
"...........................bdefcfedb............................",
"..........................bdeeefeeedb...........................",
".........................bdeegefegeedb..........................",
".....................bbb.bdegggegggedb.bbb......................",
".....................bgebbdeegggggeedbbegb......................",
"......................bdebhdeededeedhbedb.......................",
".......................bdihjbdhehdbjhidb........................",
".......................bhihdkbegebkdhihb........................",
"........................bfidedgggdedifb.........................",
"........................#cfiehbgbheifc#.........................",
".......................#achdldhbhdldhca#..mm....................",
"......................bh#afdbbbbbbbdfa#nnmlm....................",
".....................bddh#cfdegggedfc#opmqm.....................",
"....................bgedd#acfdhchdfca#prsmn.....................",
"...................bgeddbh#acccaccca#enprssmm...................",
"...................bedjb.bh#a#aaa#a#hnonprmqlm..................",
"..................bgggeb.bde#h#a#h#ednnenprmm...................",
"..................bgbbgb..bdeeh#heedb.bhdnn.....................",
"..................bbonb...bjhhjjjhhjb..bheb.....................",
".................tupn......nnjhjhjnn....begb....................",
"................tuuvt.....wnonnnnnonw..beggb....................",
"...............tuuvt....wwbhnoprpppnbww.bgb.....................",
"..............tuxvt....wwwbdhnrrrnrnbwww.b......................",
".............txxyt.....wwwbddbnsnbndbwww........................",
"............txvyt.....wwwwbedbwnwbhebwwww.......................",
"...........txvzt......wwwbggebwwwbeggbwww.......................",
"..........ttttt.......wwwwbbbwwwwwbbbwwww.......................",
".......................wwwwwwwwwwwwwwwww........................",
".......................wwwwwwwwwwwwwwwww........................",
"........................wwwwwwwwwwwwwww.........................",
"..........................wwwwwwwwwww...........................",
"................................................................",
"................................................................",
"................................................................",
"................................................................",
"................................................................",
"................................................................",
"................................................................",
"................................................................",
"................................................................",
"................................................................",
"................................................................",
"................................................................",
"................................................................",
"................................................................",
"................................................................",
"................................................................",
"................................................................",
"................................................................"};
