/* XPM */
static char * player_xpm[] = {
"64 64 206 2",
"  	c #6F736A",
". 	c #777C70",
"+ 	c #6E7269",
"@ 	c #777B70",
"# 	c #868B7C",
"$ 	c #4D504A",
"% 	c #4C4F49",
"& 	c #858A7B",
"* 	c #6A6D65",
"= 	c #393D37",
"- 	c #73776D",
"; 	c #50544D",
"> 	c #6B6E66",
", 	c #696D64",
"' 	c #6D7168",
") 	c #62665E",
"! 	c #1F1204",
"~ 	c #5D6159",
"{ 	c #71756B",
"] 	c #2D1906",
"^ 	c #47270A",
"/ 	c #61350E",
"( 	c #676B63",
"_ 	c #4F524C",
": 	c #70746B",
"< 	c #72766C",
"[ 	c #7E8375",
"} 	c #4E514A",
"| 	c #6C7067",
"1 	c #84897A",
"2 	c #51544E",
"3 	c #75796F",
"4 	c #656860",
"5 	c #565953",
"6 	c #666A62",
"7 	c #3F433D",
"8 	c #767B70",
"9 	c #7A7E72",
"0 	c #4E524B",
"a 	c #797E71",
"b 	c #585C54",
"c 	c #60645C",
"d 	c #6A6E65",
"e 	c #61645D",
"f 	c #565952",
"g 	c #40433D",
"h 	c #5E625A",
"i 	c #828779",
"j 	c #565A52",
"k 	c #74796E",
"l 	c #60635C",
"m 	c #74786E",
"n 	c #7F8477",
"o 	c #6B6F66",
"p 	c #3B3F39",
"q 	c #7B7F73",
"r 	c #444842",
"s 	c #686C63",
"t 	c #0D0D0D",
"u 	c #7D8175",
"v 	c #7C8174",
"w 	c #151414",
"x 	c #545750",
"y 	c #7B8074",
"z 	c #252323",
"A 	c #818578",
"B 	c #787D71",
"C 	c #70746A",
"D 	c #5F635B",
"E 	c #2D2A2A",
"F 	c #555851",
"G 	c #64675F",
"H 	c #7F8376",
"I 	c #828678",
"J 	c #1D1C1C",
"K 	c #6B6F67",
"L 	c #5E615A",
"M 	c #565A53",
"N 	c #52564F",
"O 	c #3C403A",
"P 	c #686C64",
"Q 	c #595C55",
"R 	c #656961",
"S 	c #5B5F56",
"T 	c #61655C",
"U 	c #595D55",
"V 	c #73786D",
"W 	c #797D72",
"X 	c #62655D",
"Y 	c #808476",
"Z 	c #4E514B",
"` 	c #4A4E47",
" .	c #52554E",
"..	c #4F524B",
"+.	c #8B0000",
"@.	c #71756C",
"#.	c #65685E",
"$.	c #646860",
"%.	c #72776D",
"&.	c #666A61",
"*.	c #797E70",
"=.	c #6F7369",
"-.	c #666961",
";.	c #454842",
">.	c #50534D",
",.	c #381D17",
"'.	c #592E25",
").	c #808577",
"!.	c #400000",
"~.	c #5C5F58",
"{.	c #585B54",
"].	c #83887A",
"^.	c #63665F",
"/.	c #5E6259",
"(.	c #51554E",
"_.	c #41453F",
":.	c #52554F",
"<.	c #6F382E",
"[.	c #5B5F58",
"}.	c #7F8476",
"|.	c #6D0000",
"1.	c #5C6156",
"2.	c #74786D",
"3.	c #575B53",
"4.	c #52564D",
"5.	c #90473B",
"6.	c #575A53",
"7.	c #676B62",
"8.	c #5A5D56",
"9.	c #271301",
"0.	c #51544D",
"a.	c #361A01",
"b.	c #777C71",
"c.	c #D60000",
"d.	c #7D8275",
"e.	c #596554",
"f.	c #858A7C",
"g.	c #7B8073",
"h.	c #75826D",
"i.	c #555951",
"j.	c #707469",
"k.	c #7D8174",
"l.	c #5F625B",
"m.	c #727B6C",
"n.	c #787C71",
"o.	c #61655D",
"p.	c #787F71",
"q.	c #66735E",
"r.	c #5C6058",
"s.	c #545851",
"t.	c #585C55",
"u.	c #7C8074",
"v.	c #5D6059",
"w.	c #575B54",
"x.	c #3C3F39",
"y.	c #84897B",
"z.	c #535750",
"A.	c #61645C",
"B.	c #686B61",
"C.	c #5A5E56",
"D.	c #53564F",
"E.	c #73776B",
"F.	c #494D47",
"G.	c #7E8376",
"H.	c #5B5E57",
"I.	c #5E6159",
"J.	c #50544C",
"K.	c #3F433C",
"L.	c #353933",
"M.	c #3A3E38",
"N.	c #64685F",
"O.	c #454942",
"P.	c #6D7169",
"Q.	c #5A5D57",
"R.	c #75796E",
"S.	c #6D7166",
"T.	c #7E8274",
"U.	c #63675D",
"V.	c #6F746A",
"W.	c #696D65",
"X.	c #474A44",
"Y.	c #808B79",
"Z.	c #738972",
"`.	c #768D6F",
" +	c #7A7E73",
".+	c #768071",
"++	c #5B695C",
"@+	c #537460",
"#+	c #526554",
"$+	c #566E5D",
"%+	c #677467",
"&+	c #494C46",
"*+	c #517862",
"=+	c #474943",
"-+	c #5B5F57",
";+	c #828679",
">+	c #545850",
",+	c #84887A",
"'+	c #272925",
")+	c #3E423C",
"!+	c #74786C",
"~+	c #4B4F48",
"{+	c #818678",
"]+	c #555952",
"^+	c #4C5049",
"/+	c #797E72",
"                                                                                                                        . +     ",
"          @                                                                                                         # # $       ",
"      # # %                                                                                         & *         . % % % =       ",
"  - ; % % =                                                                                     # # %           >         ,     ",
"  '         )                         % #           ! ! !                                     ~ % % =                           ",
"        {                               % %       ! ] ^ / !         # # %                             (                         ",
"    & # _                     : < [     }         ! ] ^ / ! $ : | 1 2 $         % #           < 3 4   5 1                       ",
"  ~ % % =                   | 6 % 7 8 9 0         ! ] ^ ^ ! % a b c c             % #       d e f g     h i                     ",
"          j           # %     k     )         ! ! ! ] ^ ^ ! j * ! !             # % %         +     )     l                     ",
"          m       # # %         {         ( ! ] ^ ! ] ] ^ ! ! ! ^ ] ! ! !       # = % %   n     {         o n                   ",
"              # % % % =     & # _           ! ] ^ ! ] ] ^ ! ^ / ^ ] ! ^ / ! ! & p         c & # _           q   # #             ",
"              %         r s % % =           ! ] ^ ! ] ! ! ^ / ^ ] ! ^ / / / / ! !   : t t 6 % % =           c 2 % % #     u *   ",
"                        v ~       j         ! ] ^ ! ! ^ ^ / ^ ] ! ^ / / / / / / t t t w w t t     j           <     x & # %     ",
"                        y +       m       i ! ] ^ ! ^ ^ / / ^ ] ! ^ / / / / / t z z z w w t z t   m       A 3 +     % % % =     ",
"              B             C         # $ D ! ] ^ ! ^ / / ^ ] ! ^ / / / / / t z z w z E w t E z t     # F G |       )       =   ",
"          # # %       H I & 5         f   C ! ! ! ] ^ / / ^ ] ! ^ / / / / t z z J w z E w w z E z t K L | 9                 # ; ",
"        M % % =       N % % O           + P ! ] ] ^ / / ^ ^ ] ! ^ / / / t z z J w z E z z w z E z t         h               # Q ",
"                D   $ 5 R     S           ! ] ] ^ ^ / / ^ ] ! ^ ^ / / / t J w w z E z t t z z z t t                           T ",
"                  % #   U V W X       Y - ! ] ^ ^ / / ^ ^ ] ! ^ ^ ^ / / t z E E E z t t t z E z t t           H Z         i 4   ",
"                  #     `  ...=   { P , ! ! ! ^ ^ / ^ ^ ^ ] ! ^ ^ ^ / / t z z z z z t t +.t E t +.t         @.#.+               ",
"                        c       $.%.&.| ! ] ] ! ^ ^ ^ ^ ! ] ! ^ ^ ^ ^ / / t z w w E z t t t w t t t       # *.s                 ",
"                            { =.-.~ ;.    ! ] ] ! ! ^ ^ ^ ] ! ^ ! ^ ^ ^ ^ t z z J w E z J t w t J t   # % $ e = #               ",
"                        & # >.d d     )   ! ] ] ] ] ! ! ! ] ! ^ ^ ^ ^ ^ ^ ! t t z J w E z J w J E t - x         %               ",
"              # %     6 % _ ;     {         ! ! ! ] ] ] ] ! ! ! ! ! ! ! ! ] ,.'.t t t z E z J E z t P           %               ",
"          # # %   ).  C { |   n # _         ! ] ^ ! ^ ^ ^ ^ ] ! ] ] ] ] ] ^ ,.'.'.,.!.t z t z t z t )                           ",
"        ~.% % =   {.]., ^./.3 (.% =       ! ! ] / ^ ! ^ ^ ! ] ! ^ ! ^ ^ ^ ^ ^ ,.'.,.!.t w t w t w t                             ",
"                _.:.{.c     $.+     j   ! ] ! ] ^ / ^ ! ^ ^ ^ ] ! ^ ^ ^ ^ ^ ] ,.'.<.,.!.t !.t @.t                 # %           ",
"            [.}.# i     {           m ! ] ^ ! ! ] ^ / ! ] ] ^ ] ! ^ ^ ^ ^ ] ] ] ,.<.,.!.!.|.,.' 1.+         2.  % %             ",
"                    1 # _           ! ] ^ ! ] ^ ! ] ] ! ] ] ] ] ] ! ] ] ] ] ] ] ,.<.<.,.|.|.|.,.s 3.        s 4.= % %           ",
"                  6 % % =         ! ] ^ ! ] / ^ ! ! ! ! ] ] ] ] ] ] ! ] ] ] ! ! ^ ,.5.5.,.,.,.,.o m       # # |   # # %         ",
"                          j       ! ^ ! ] / ^ ! J J z z ! ! ! ! ! ! ! ! ! !   ! ] ,.5.5.5.5.5.,.      # % 6.7.+       # %       ",
"                : 8.'     m     t z ! ] / ^ ! w J J z ! 9.9.9.9.9.9.9.9.!     ! ] ^ ,.,.,.,.,.P       >.                        ",
"              K $.0.          t z ! ] / ^ ! w w J J ! 9.9.9.9.a.! ! a.!   &.    ! ] ^ ! z t                 8.                  ",
"                    )       t z ! ] / ^ ! t w w J J z ! 9.9.a.! +.+.!     m     ! ] ^ ! z t     '         ' b.+                 ",
"                {         t z ! ] / ^ ! ) t w w t J z z ! 9.a.! +.c.!   +     d.e.! ] ^ ! z t     : >   i ).s f.%               ",
"    m       g.# _       t z ! ] / ^ !     t w w w J t ! 9.9.a.! +.c.!         R h.! ] ^ ! z t   o d i.s 6 j.k.Z                 ",
"# # Z     ' l.% =     t z ! ] ^ ^ ! _       t w w t z z ! 9.a.a.! !     : |     m.: ! ] ^ ! z t n.    )     o.                  ",
"% % =             j   t t t t ^ ! % =       t w t J J z ! 9.! a.a.! + > R b   < p.q.! ] ^ t t t + {           r.].              ",
"      s.          m   t w J J t +     j     t t w w t J J ! J ! !           c X s.=   t t w J t # _             t.              ",
"      d.        '   t w w t z z t     m       t w w w J J w w !         {           ) t w t J z t =             8.              ",
"      u.        v.- t w t w t z t +       # % ! ! ! w w w w ! ^ !   g.& _       {     t w t z z t   j           b.+             ",
"                  e t w w t z z t '       Z ! ^ ^ ^ ! w w ! ^ / ^ ! s w.x.  ).y.z.    t w t J z t   m       # n d               ",
"    # ,       % 2 A.& t w J J t ! P       - ! ^ ^ ^ ] ! ! ] ] ^ / ^ !     T B.% C.      t w J t !       # % D.$.| # %           ",
"    ..'     % # 1 E.% % t t t ] ! F.C <   ! ^ / ^ ^ ] ! ! ] ] ] ^ / ^ ! d o.:.=         ! t t ] !   + ' % @ G.  $ %             ",
"  % ;                     ! ] / ^ ! Q H.b ! ^ / ^ ] ! $ % ! ] ] ] ^ / ^ !       )       ! ] ] / ! 8 + I.J.K.L.M.= % %           ",
"% #                       ! ] ^ / !     ! ^ / ^ ] !         ! ! ] ] ^ / ^ ! {           N.! ] / ^ !   b O.$ #     # # %         ",
"#                   {.$.P.  ! ] / ^ ! { ! ^ / ^ ] ! {       m   ! ] ] ^ / ^ !             ! ] ^ / !   3.i.            # %       ",
"                  % _ Q.R.S.! ] ^ / ! ! ^ / ^ ] ! # >.          # ! ! ] ^ / ^ !           ! ] ^ / ! T.U.+                       ",
"                      o Q )   ! ] / ^ ! ^ / ] ! x % =     q 8 7.{.    ! ] ^ ! ^ !       V.< ! ] / ^ ! > +                       ",
"                              ! ] ^ / ! ! ^ ] !       3.W.2 x X.        ! ] ^ / !     Y.Z.`.! ] ^ / !                     @     ",
"                   +'         C ! ] / ^ ! ] !   .+    m         j       ! ! ! ! / ! 6.++@+_.! ] ^ / !                 # # %     ",
"              # # %             ! ] ^ / ! ! ! #+$+%+      @     m     }.! ] ^ ^ / !   o &+y.  ! ] / ^ !     R.+   - ; % % =     ",
"            ~.% % =               ! ] / ^ ! ! ;.*+=+-+o | h         ).! ] ] ! ^ !     { ;     ! ] ^ / ! ;+# $     '         )   ",
"                    >+            ! ] ^ / ! ,+& '+)+].H H s.v       Q ! ] ^ ^ ^ !       1.+   ! ] ^ / ! % % =                   ",
"                    {             ! ! ] / ^ !   # =       & >.        ! ] ^ ^ !     # !+o       ! ] / ^ !     ~+                ",
"                                  ! ! ] ^ / !     =       #         _ ! ] ^ ^ ! # % 6.&.'       ! ] ^ / !     . +               ",
"                  # l           ! ^ ^ ! ] / ^ !   t t   t t       %   ! ] ^ !   f 9 w.          ! ] ^ / t t   t t             # ",
"              # # %             ! ^ ^ ! ] ^ / ! t z t t z t           ! ] ^ ! {+]+                ! ] t z t t z t         # # % ",
"            w.% % ^+      f.(   ! ^ ] ! ! ] / ^ t J z t J z t       ! ] ^ ! % % =                 ! ] t J z t J J t   /+% % % = ",
"                      # # %     ! ^ ] ! ! ] ^ ^ t J J t J J t       ! ] ^ !       )           # # ! ] t J J t J J t   C         ",
"                  /+% % % =   ! ^ ^ ] !   ! ] t J J w J t w z t     ! ] ^ !                 ~ % % = t J J w J t w z t F         ",
"                  |         o ! ^ ] !     ! ] t J w t w t t w t     ! ] !                           t J w t w t t w t =         ",
"                              ! ^ ] !       ! t w w t t w t t w t   ! ] !                           t w w t t w t t w t -+      ",
"                                ! !           t t t     t t   t t     ! !                             t t     t t   t t -       "};
