/* XPM */
static char *dummy[]={
"64 64 14 1",
"l c #090910",
"k c #0e0f15",
"j c #13161c",
"g c #1b2028",
"f c #252c35",
"i c #262925",
"h c #2d312b",
"e c #323c45",
"c c #393d37",
"b c #43525b",
"# c #4c4f49",
"d c #586d76",
". c #6f736a",
"a c #868b7c",
"................................................................",
"................................................................",
"................................................................",
"................................................................",
"...#a..............................................#a...........",
"....##..............................................##..........",
".a..#.........b....#a............................a..#.........b.",
"#baac.....#a..da....#a..........................#baac.....#a..da",
"#d#c.......#abd#.....#.....................a#..a#d#c.......#abd#",
"cde#b#a...a##db#a....#a..................aa#...#cde#b#a...a##db#",
"dbece###aa##bdf##....#a.aa.............a###c..acdbece###aa##bdf#",
"dbfgfc#####cbdfc#....c####a............#....c.#hdbfgfc#####cbdfc",
"dbfgfhc#b#cbdbfhc#e.ac....#.................acchdbfgfhc#b#cbdbfh",
"befggbccdccbdegficeac.....#.................a#cbbefggbccdccbdegf",
"bffggbchdbcbdegficeb......#..................chbbffggbchdbcbdegf",
"bffgjdhedehebegfiheb#......................a#heebffgjdhedehebegf",
"effgjdeebefegfeejebb#......................#cchefgjgjdeebefebegf",
"efggebefeefegfeejebb#......................#chgefjggebefeefebegf",
"efggebegefgegffegebc.......................#hgfegjggjjjgefgebegf",
"efggeefgjfgejgfebecc.......................#hhgfjfjjbefjefgeeegf",
"efgjfefjdjgeejfeec##a.................#...##chhgjjbbefjjeggeeegf",
"ffgjfefjbbjeejffc#a.#.a#...............####.#chjebeffjfjegfeeegf",
"ffgjfeggjbbjejgc.a...##.................##...chgeefgjegjfgfeefgf",
"ffgjgfggjfebkjjca....#..................#....cheefjjgfgjfgfeefgg",
"ffgjgfgjgjfebkjca............................chefjgjgfgjggffefgg",
"ffgjgfgjgjgfebgj............................#hgfjfgjgfgjggffefjg",
"fggjggggjgjgfebg#.#b.....................#.##hgjfggjggggjggfefjg",
"fggjjgbgjggjgfegc##d......................##chjefggjjgbgjggfefjg",
"fgjkjgdgjggjggjcccbd.......................#chfjfgjkjgdgjggfefjg",
"ggjkjjdgkggfjjbjccbd#......................#cgeejjjkjjdgkggfffjg",
"ggjkjedgkjgffjejfcbb#......................#ccfeegkkjedgkjgffgjg",
"ggjkjebekjgffkebjfbb.......................#ccgefggkjebekjgffgjg",
"ggjkgeefjjggfkfefgbe..#....................##cgfgkkkgeefjjggfgjj",
"gjjkgfefjjggfgkfgjbe##....................##ccgfkjjkgfefjjggfgkj",
"gjkkgfefgjjkkjkgjjef#..a#................#a.b#jgkjkkgfefgjjggjkj",
"gjkkgfffgkjkekkkkeec#aa#.................a..bejjkjfkgfffgkjggjkj",
"gjkkgfffgkjkfekjkef#ccc.....................ebjkjfgkgfffgkjggjjj",
"gjkggffggkjgkfekjef#a..ca....................bfjfgkggffggkjgjkjj",
"gjkgggfggkjjkgffgfga....#....................bfjgjkgggfggkjjjkjj",
"jjkgggfgjkkjlkfegfg.....#...............#....eejgjkgggfgjkkjlkkj",
"jjkjggfgjkllhlgfjfg.....................#a...fefjjfkggfgjkllhlkj",
"jkkjggfgjlhhcljgjgg#.....................#a...ffjgfkggfgjlhhclkj",
"jkkjjgggjlhcclbjjgc#a....a#............####c.#fggfekjgggjlhccclk",
"lkkljggjklcclbbkjgcc#aa.##............#aaa.#cc#jgefkjggjklcc#ccl",
"cllhljgjlc##lbbkjccbccccc##................a#cchfbgkkjgjlc####cc",
"#cccljjkl##.lebkjhcdc#a..aa#...............a#cchbeglljjkl##..###",
".###clllc#..lebkjhcd#......a#..............##cheefl#clllc#.....#",
"....#ccc##..leebkhbd.....................####cheegl.#ccc##......",
".....###..#..lfefgbe..#....................##cgfcjl..###..#.....",
"......#.......lfgjbe##....................##ccgfjl...##....###..",
".....#.....ll.lgjjef#..a#................#a.b#jgl.l..#.....#....",
"...##......lel.lkeec#aa#.................a..bejjklfl.......#....",
".....#.....lfel.lef#ccc.....................ebjkjfgl......#.....",
"......#.....lfeljef#a..ca....................bfjfgl.............",
"............lgffgfga....#....................bfjgjl.............",
".............lfegfg.....#...............#....eejgjl#............",
".............lgfjfg.....................#a...fefjjfl#...........",
"..............lgjgg#.....................#a...ffjgfl............",
".............lbjjgc#a....a#............####c.#fggfel............",
"............lbbkjgcc#aa.##............#aaa.#cc#jgefl............",
"............lbbkjccbccccc##................a#cchfbgl............",
"............lebkjhcdc#a..aa#...............a#cchbegl............",
"............lebkjhcd#......a#..............##cheefl.............",
"............leebkhbd.....................####cheegl............."};
