/* XPM */
static char *dummy[]={
"64 64 14 1",
"l c #090910",
"k c #0e0f15",
"j c #13161c",
"g c #1b2028",
"f c #252c35",
"i c #262925",
"h c #2d312b",
"e c #323c45",
"c c #393d37",
"b c #43525b",
"# c #4c4f49",
"d c #586d76",
". c #6f736a",
"a c #868b7c",
"................................................................",
"................................................................",
"................................................................",
"................................................................",
"...#a..............................................#a...........",
"....##..............................................##..........",
".a..#.........b....#a............................a..#.........b.",
"#baac.....#a..da....#a..........................#baac.....#a..da",
"#d#c.......#abd#.....#.....................a#..a#d#c.......#abd#",
"cde#b#a...a##db#a....#a..................aa#...#cde#b#a...a##db#",
"dbece###aa##bdf##....#a.aa.............a###c..acdbece###aa##bdf#",
"dbfgfc#####cbdfc#....c####a............#....c.#hdbfgfc#####cbdfc",
"dbfgfhc#b#cbdbfhc#e.ac....#.................acchdbfgfhc#b#cbdbfh",
"befggbccdccbdegficeac.....#.................a#cbbefggbccdccbdegf",
"bffggbchdbcbdegficeb......#..................chbbffggbchdbcbdegf",
"bffgjdhedehebegfiheb#......................a#heebffggdhedehebegf",
"effgjdeebefebfebihebd#............a#...#...##hfeeffggdeebefebegf",
"efggebefeefebfebihebd#..#....#....#...#a....chfeefggebefeefebegf",
"efggebejefgebfeeiiebdca.#...a##..a#a.#a....#hgefefggebejefgebegf",
"efggeefjefgeefeeiiebdd#ac#a.c..#.#.#c#a....#hgffefgegefjefgeeegf",
"efgjfefjeggeeffeeifbddc#.c#b.........c...##chgfgefefgefjeggeeegf",
"ffgjfefjegfeegfeeifbddcc##bda.......ac#.#ecchgfgffefgefjegfeeegf",
"ffgjfegjfgfeeggeeifbbdbcc#bd#a.....a#c###bchigggfefggegjfgfeefgf",
"ffgjgfgjfgfeefgfeffebdbcccbd##.a.aa#c##ccbhhigggfbfgjfgjfgfeefgg",
"ffgjgfgjggffgfgfeffebbbhccbd########hcccbbbhijgjeegjgfgjggffefgg",
"ffgjgfgjggfjffggeffebbehhebdc######chcchbbbiijjfbfgjgfgjggffefjg",
"fggjggggjggjfeggegfeebehhebbccc###ccchhhebeiijgfbfjjggggjggfefjg",
"fggjjgbgjggjfegjggffebfihebbhccfccchhhhhebefjjgeegjgjgbgjggfefjg",
"fgjkjgdgjggjfegjggffeefiheebhchfcchbhhhifbefjggefgggkgdgjggfefjg",
"ggjkjjdgkggkfeegggffeefihfebhhhfhhhbhhiifeefjgfefjgjkjdgkggfffjg",
"ggjkjedgkjgkgfegjgffeeffifeeihhffhebeigiffefggefgjjjkedgkjgffgjg",
"ggjkjebekjgkgfegjggfgeffgfeeehifehebfgejgfefggefgjjkjebekjgffgjg",
"ggjkgeefjjggkffegjgfgeffgfeeeiifbhfefgeegffggfefgjjkgeefjjggfgjj",
"gjjkgfefjjggkgfegjgfgfeggffefiifbifefgffgffggffgjjkkgfefjjggfgkj",
"gjkkgfefgjjgkgffgjgfjgfgggfefigfbefefggfgfgjgffgjjkkgfefgjjggjkj",
"gjkkgfffgkjgkjgfgjggkgfgjgfefdgfbbgffggggfggffggjjkfkfffgkjggjkj",
"gjkkgfffgkjkgkgggjjgkgggjgffjbgfebgfggjgggjgffggjjkfkfffgkjggjjj",
"gjkggffggkjgkgjggjjgjjgjjgffjegfebgfgjgbgjjgfggjjkffkffggkjgjkjj",
"gjkgggfggkjjkjgjfjkggkjjbggjegjffegfggbegjgjfggjjffgkgfggkjjjkjj",
"jjkgggfgjkkjlkjgfgkjgjkbdjgjfgjgfeggjgbfggfgfgjjgfgjkgfgjkkjlkkj",
"jjkjggfgjkllhljjgfjjgjjbdjgjgjggfefggebgjfegggjjffgjkgfgjkllhlkj",
"jkkjggfgjlhhclkjgfjkjgjebjgjgkggfefggefgjebfggkjfgjjkgfgjlhhclkj",
"jkkjjgggjlhcccljjgjkjjkebjkjjkggfffgfefggbbjgjkgggjkjgggjlhccclk",
"lkkljggjklcc#cljjggjjkgfegjkgjggfffgffgjebejgjjggjjkjggjklcc#ccl",
"cllhljgjlc####lkjjgjjkgfegbjgjggfffggfgjbefjgkjggjjlkjgjlc####cc",
"#cccljjkl##..llkjjggjjgfegbggjjggffgjfjfefgjjkggjjlcljjkl##..###",
".###clllc#..lkjlkjjgkjgffgeejkjggfggjgjeefgjjjgjjkl#clllc#.....#",
"....#ccc##...lkgkkjgkjgffjefjkjggfggjjjefgjkjjjjkl.l#ccc##......",
".....###..#..lkkkkjjkjgffjefjkjgggggjkgffgjkjkjklllkl###..#.....",
"......#....###lkkkjjkjgfgjffkjjgggggjjgfggjkkkkjjkkl.##....###..",
".....#.....#...lkkkjkjjfgjfgkjjggggjkgfggjjjkjjkkkl..#.....#....",
"...##......#...lkkkkkjjgjjfgkjjggggjkgfggjjjgkkkkla##......#....",
".....#....#....ljkkkkjjgjjfgkkjjjggjjgggjjjggkkklc#..#....#.....",
"................kgkkkkjgjjgjfkjjjgjkjjggjjkgjkkl.c..............",
"................lkggkkjgjjkjfkjjjjjjjjgjjkkjjkla.#..............",
"................lkjjgkjjjjkfgkkjjjjgjjgjjkjjkkl.####............",
".................lkjjkkjjjfgjkkjjjkgjjjjkjjkkl.#.#.a#...........",
"..............#.#lkkjjkjjkgjklkjjkjggjjkjjkkkl..#...............",
"...............#..lkkjkkjkjklhlkjkjgjjjkjkkkl.##................",
"..............#...#llkkkkkkklhhllkjjjjkkkkkl....#...............",
"..............#.....#lllkkklhcccclkjjkkllll.....................",
".....................#cclllhcc##clkjkklhc#......................",
"....................#.#cccccc####clkklhc#......#................",
".................###...########..#cllcc#......#................."};
